<svg width="284" height="261" viewBox="0 0 284 261" fill="none" xmlns="http://www.w3.org/2000/svg">
<path d="M201.288 239.361H71.7481C68.6716 239.357 65.7222 238.135 63.5472 235.961C61.3722 233.788 60.1493 230.842 60.1469 227.769V178.035C59.8787 178.34 59.5981 178.642 59.309 178.935V227.769C59.312 231.064 60.6234 234.222 62.9554 236.552C65.2874 238.882 68.4496 240.193 71.7481 240.197H201.653C201.527 239.921 201.406 239.641 201.288 239.361ZM60.1469 55.5299C60.1493 52.4571 61.3722 49.5108 63.5472 47.3376C65.7222 45.1644 68.6716 43.942 71.7481 43.9385H114.91C114.83 43.6581 114.755 43.3819 114.684 43.1016H71.7481C68.4496 43.1057 65.2874 44.4165 62.9554 46.7465C60.6234 49.0765 59.312 52.2353 59.309 55.5299V131.774C59.5981 132.067 59.8746 132.368 60.1469 132.673V55.5299ZM234.085 65.3052L207.02 43.8925C206.374 43.3808 205.574 43.1021 204.749 43.1016H180.663C180.596 43.3819 180.52 43.6623 180.441 43.9385H204.749C205.384 43.94 206.001 44.1536 206.5 44.5453L233.566 65.9622C233.823 66.1645 234.03 66.4227 234.172 66.7171C234.315 67.0114 234.388 67.3343 234.387 67.6611V192.292C234.668 192.3 234.948 192.321 235.225 192.342V67.6611C235.226 67.2078 235.125 66.7601 234.927 66.3519C234.73 65.9437 234.442 65.5857 234.085 65.3052Z" fill="#00ADB5"/>
<path d="M233.728 66.4108H211.889C211.099 66.4108 210.318 66.2555 209.588 65.9537C208.859 65.652 208.196 65.2097 207.638 64.6522C207.08 64.0947 206.637 63.4328 206.335 62.7043C206.033 61.9759 205.877 61.1951 205.877 60.4067V44.2962C205.877 44.2256 205.897 44.1565 205.935 44.0968C205.972 44.037 206.026 43.989 206.09 43.9583C206.153 43.9276 206.224 43.9154 206.294 43.9232C206.365 43.9309 206.431 43.9582 206.486 44.002L233.961 65.7414C234.022 65.7897 234.067 65.8559 234.089 65.9308C234.11 66.0056 234.108 66.0853 234.083 66.1589C234.057 66.2325 234.009 66.2962 233.945 66.3414C233.882 66.3865 233.806 66.4108 233.728 66.4108Z" fill="#00ADB5" fill-opacity="0.5"/>
<path d="M233.728 66.8293H211.889C210.184 66.8273 208.55 66.15 207.344 64.946C206.138 63.7419 205.46 62.1094 205.458 60.4066V44.2962C205.458 44.1471 205.501 44.0009 205.58 43.8745C205.659 43.7481 205.773 43.6466 205.907 43.5817C206.042 43.5167 206.192 43.4909 206.34 43.5072C206.489 43.5235 206.629 43.5813 206.747 43.6739L234.221 65.4135C234.35 65.5158 234.445 65.6558 234.491 65.814C234.537 65.9723 234.533 66.1409 234.478 66.2966C234.424 66.4522 234.323 66.5871 234.188 66.6826C234.054 66.7781 233.893 66.8293 233.728 66.8293ZM206.296 44.3855V60.4066C206.298 61.8876 206.888 63.3073 207.936 64.3545C208.985 65.4016 210.406 65.9907 211.889 65.9923H233.603L206.296 44.3855Z" fill="#00ADB5"/>
<path d="M190.377 94.1796H126.13C125.333 94.1796 124.569 93.8634 124.005 93.3004C123.441 92.7374 123.125 91.9738 123.125 91.1776C123.125 90.3814 123.441 89.6178 124.005 89.0548C124.569 88.4918 125.333 88.1755 126.13 88.1755H190.377C191.174 88.1755 191.938 88.4918 192.502 89.0548C193.066 89.6178 193.382 90.3814 193.382 91.1776C193.382 91.9738 193.066 92.7374 192.502 93.3004C191.938 93.8634 191.174 94.1796 190.377 94.1796Z" fill="#00ADB5" fill-opacity="0.2"/>
<path d="M202.775 104.312H126.13C125.333 104.312 124.569 103.995 124.005 103.432C123.441 102.869 123.125 102.106 123.125 101.309C123.125 100.513 123.441 99.7497 124.005 99.1867C124.569 98.6237 125.333 98.3074 126.13 98.3074H202.775C203.572 98.3074 204.337 98.6237 204.9 99.1867C205.464 99.7497 205.781 100.513 205.781 101.309C205.781 102.106 205.464 102.869 204.9 103.432C204.337 103.995 203.572 104.312 202.775 104.312H202.775Z" fill="#00ADB5" fill-opacity="0.2"/>
<path d="M190.377 139.586H126.13C125.333 139.586 124.569 139.269 124.005 138.706C123.441 138.143 123.125 137.38 123.125 136.584C123.125 135.787 123.441 135.024 124.005 134.461C124.569 133.898 125.333 133.582 126.13 133.582H190.377C191.174 133.582 191.938 133.898 192.502 134.461C193.066 135.024 193.382 135.787 193.382 136.584C193.382 137.38 193.066 138.143 192.502 138.706C191.938 139.269 191.174 139.586 190.377 139.586Z" fill="#00ADB5" fill-opacity="0.2"/>
<path d="M202.775 149.717H126.13C125.333 149.717 124.569 149.401 124.005 148.838C123.441 148.275 123.125 147.512 123.125 146.715C123.125 145.919 123.441 145.156 124.005 144.593C124.569 144.03 125.333 143.713 126.13 143.713H202.775C203.572 143.713 204.337 144.03 204.9 144.593C205.464 145.156 205.781 145.919 205.781 146.715C205.781 147.512 205.464 148.275 204.9 148.838C204.337 149.401 203.572 149.717 202.775 149.717H202.775Z" fill="#00ADB5" fill-opacity="0.2"/>
<path d="M190.377 184.992H126.13C125.736 184.992 125.345 184.914 124.98 184.763C124.615 184.612 124.284 184.391 124.005 184.112C123.726 183.834 123.505 183.503 123.353 183.138C123.202 182.774 123.125 182.384 123.125 181.99C123.125 181.595 123.202 181.205 123.353 180.841C123.505 180.477 123.726 180.146 124.005 179.867C124.284 179.588 124.615 179.367 124.98 179.216C125.345 179.065 125.736 178.988 126.13 178.988H190.377C191.174 178.988 191.938 179.304 192.502 179.867C193.066 180.43 193.382 181.193 193.382 181.99C193.382 182.786 193.066 183.549 192.502 184.112C191.938 184.675 191.174 184.992 190.377 184.992Z" fill="#00ADB5" fill-opacity="0.2"/>
<path d="M202.775 195.124H126.13C125.736 195.124 125.345 195.046 124.98 194.895C124.615 194.744 124.284 194.523 124.005 194.244C123.726 193.966 123.505 193.635 123.353 193.271C123.202 192.906 123.125 192.516 123.125 192.122C123.125 191.727 123.202 191.337 123.353 190.973C123.505 190.609 123.726 190.278 124.005 189.999C124.284 189.72 124.615 189.499 124.98 189.348C125.345 189.197 125.736 189.12 126.13 189.12H202.775C203.17 189.12 203.56 189.197 203.925 189.348C204.29 189.499 204.621 189.72 204.9 189.999C205.179 190.278 205.401 190.609 205.552 190.973C205.703 191.337 205.781 191.727 205.781 192.122C205.781 192.516 205.703 192.906 205.552 193.271C205.401 193.635 205.179 193.966 204.9 194.244C204.621 194.523 204.29 194.744 203.925 194.895C203.56 195.046 203.17 195.124 202.775 195.124H202.775Z" fill="#00ADB5" fill-opacity="0.2"/>
<path d="M99.3767 106.854C105.244 106.854 110 102.104 110 96.2436C110 90.3836 105.244 85.6331 99.3767 85.6331C93.5095 85.6331 88.7533 90.3836 88.7533 96.2436C88.7533 102.104 93.5095 106.854 99.3767 106.854Z" fill="#00ADB5"/>
<path d="M98.3239 100.291C98.0849 100.292 97.8523 100.214 97.6611 100.071L97.6492 100.062L95.1526 98.1548C95.0367 98.0664 94.9394 97.956 94.8663 97.83C94.7932 97.7039 94.7457 97.5647 94.7265 97.4203C94.7073 97.2759 94.7167 97.1292 94.7544 96.9884C94.792 96.8477 94.857 96.7157 94.9458 96.6001C95.0345 96.4845 95.1452 96.3875 95.2715 96.3147C95.3978 96.2419 95.5372 96.1946 95.6818 96.1756C95.8264 96.1567 95.9734 96.1664 96.1142 96.2042C96.2551 96.242 96.3871 96.3072 96.5027 96.396L98.1198 97.6345L101.941 92.6552C102.03 92.5398 102.14 92.4429 102.266 92.3701C102.392 92.2973 102.532 92.25 102.676 92.231C102.82 92.2119 102.967 92.2215 103.108 92.2591C103.249 92.2966 103.38 92.3616 103.496 92.4501L103.496 92.4503L103.473 92.4832L103.497 92.4503C103.73 92.6293 103.883 92.8934 103.921 93.1846C103.96 93.4758 103.881 93.7704 103.702 94.0036L99.2074 99.8578C99.1034 99.9927 98.9697 100.102 98.8167 100.177C98.6636 100.252 98.4954 100.29 98.3249 100.29L98.3239 100.291Z" fill="white"/>
<path d="M99.3767 152.26C105.244 152.26 110 147.51 110 141.65C110 135.79 105.244 131.039 99.3767 131.039C93.5095 131.039 88.7533 135.79 88.7533 141.65C88.7533 147.51 93.5095 152.26 99.3767 152.26Z" fill="#00ADB5" fill-opacity="0.5"/>
<path d="M98.3239 145.697C98.0849 145.698 97.8523 145.621 97.6611 145.477L97.6492 145.468L95.1526 143.561C94.9191 143.382 94.7662 143.118 94.7277 142.827C94.6892 142.535 94.7681 142.24 94.9471 142.007C95.1261 141.774 95.3906 141.621 95.6823 141.583C95.9741 141.544 96.2691 141.623 96.5027 141.802L98.1198 143.041L101.941 138.061C102.03 137.946 102.14 137.849 102.266 137.776C102.392 137.703 102.532 137.656 102.676 137.637C102.82 137.618 102.967 137.627 103.108 137.665C103.249 137.703 103.38 137.768 103.496 137.856L103.496 137.856L103.473 137.889L103.497 137.856C103.73 138.035 103.883 138.299 103.921 138.591C103.96 138.882 103.881 139.176 103.702 139.41L99.2074 145.264C99.1034 145.399 98.9697 145.508 98.8167 145.583C98.6636 145.658 98.4954 145.697 98.3249 145.696L98.3239 145.697Z" fill="white"/>
<path d="M99.3767 197.666C105.244 197.666 110 192.916 110 187.056C110 181.196 105.244 176.445 99.3767 176.445C93.5095 176.445 88.7533 181.196 88.7533 187.056C88.7533 192.916 93.5095 197.666 99.3767 197.666Z" fill="#00ADB5" fill-opacity="0.5"/>
<path d="M98.3239 191.103C98.0849 191.104 97.8523 191.026 97.6611 190.883L97.6492 190.874L95.1526 188.967C95.0367 188.878 94.9394 188.768 94.8663 188.642C94.7932 188.516 94.7457 188.377 94.7265 188.232C94.7073 188.088 94.7167 187.941 94.7544 187.8C94.792 187.66 94.857 187.528 94.9458 187.412C95.0345 187.297 95.1452 187.2 95.2715 187.127C95.3978 187.054 95.5372 187.007 95.6818 186.988C95.8264 186.969 95.9734 186.978 96.1142 187.016C96.2551 187.054 96.3871 187.119 96.5027 187.208L98.1198 188.447L101.941 183.467C102.03 183.352 102.14 183.255 102.266 183.182C102.392 183.109 102.532 183.062 102.676 183.043C102.82 183.024 102.967 183.033 103.108 183.071C103.249 183.109 103.38 183.174 103.496 183.262L103.496 183.262L103.473 183.295L103.497 183.262C103.73 183.441 103.883 183.705 103.921 183.997C103.96 184.288 103.881 184.582 103.702 184.816L99.2074 190.67C99.1034 190.805 98.9697 190.914 98.8167 190.989C98.6636 191.064 98.4954 191.102 98.3249 191.102L98.3239 191.103Z" fill="white"/>
<path d="M248.739 257.072C248.14 257.385 247.53 257.681 246.91 257.96C246.345 258.215 245.772 258.455 245.189 258.679C244.976 258.76 244.76 258.841 244.543 258.922C242.831 259.542 241.072 260.026 239.284 260.37C238.398 260.544 237.501 260.681 236.592 260.78C235.842 260.865 235.084 260.925 234.318 260.961C233.773 260.988 233.228 261 232.679 261C230.504 261.001 228.334 260.798 226.197 260.394C225.64 260.293 225.095 260.173 224.55 260.042C221.912 259.411 219.359 258.469 216.943 257.238C216.726 257.13 216.51 257.014 216.293 256.902C215.972 256.732 215.659 256.554 215.346 256.369C215.497 256.16 215.659 255.955 215.825 255.755C217.635 253.515 219.897 251.681 222.463 250.373C225.03 249.064 227.844 248.311 230.722 248.161C233.599 248.012 236.476 248.47 239.165 249.505C241.854 250.541 244.294 252.131 246.326 254.171C247.031 254.878 247.685 255.634 248.283 256.434C248.441 256.643 248.592 256.855 248.739 257.072Z" fill="#00ADB5"/>
<path d="M233.45 240.105C242.829 240.105 250.431 232.511 250.431 223.144C250.431 213.777 242.829 206.184 233.45 206.184C224.072 206.184 216.47 213.777 216.47 223.144C216.47 232.511 224.072 240.105 233.45 240.105Z" fill="#2F2E41"/>
<path d="M237.967 240.129C244.092 236.785 246.342 229.115 242.994 222.997C239.646 216.88 231.967 214.632 225.843 217.976C219.718 221.32 217.467 228.99 220.815 235.107C224.163 241.224 231.842 243.473 237.967 240.129Z" fill="#A0616A"/>
<path d="M245.185 221.112C242.297 223.1 238.869 224.159 235.361 224.145C236.612 225.011 238.037 225.596 239.536 225.86C234.873 226.859 230.053 226.886 225.378 225.94C224.339 225.773 223.337 225.429 222.415 224.923C221.955 224.666 221.555 224.316 221.239 223.895C220.924 223.474 220.701 222.992 220.585 222.479C220.275 220.707 221.657 219.096 223.094 218.011C225.294 216.375 227.831 215.248 230.521 214.711C233.211 214.174 235.986 214.241 238.647 214.907C240.384 215.356 242.125 216.114 243.253 217.507C244.381 218.901 244.716 221.049 243.641 222.484L245.185 221.112Z" fill="#2F2E41"/>
<path d="M235.225 191.564C234.948 191.543 234.668 191.526 234.387 191.514C233.821 191.484 233.252 191.472 232.677 191.472C226.97 191.472 221.35 192.874 216.313 195.554C211.276 198.235 206.976 202.111 203.793 206.842C200.609 211.573 198.639 217.014 198.056 222.685C197.473 228.355 198.295 234.082 200.451 239.361C200.564 239.641 200.681 239.921 200.807 240.197C203.686 246.712 208.486 252.195 214.566 255.915L214.788 256.045C214.976 256.158 215.16 256.266 215.345 256.367C215.659 256.555 215.973 256.731 216.292 256.903C216.51 257.016 216.727 257.128 216.941 257.237C219.357 258.469 221.911 259.411 224.55 260.041C225.094 260.175 225.639 260.292 226.196 260.393C228.333 260.797 230.503 261 232.677 260.999C233.226 260.999 233.771 260.987 234.32 260.962C235.082 260.928 235.841 260.865 236.591 260.782C237.5 260.681 238.398 260.545 239.285 260.372C241.072 260.027 242.831 259.543 244.543 258.924C244.761 258.84 244.978 258.76 245.188 258.677C245.774 258.455 246.344 258.216 246.91 257.961C247.53 257.681 248.14 257.384 248.741 257.07C254.76 253.92 259.736 249.094 263.065 243.177C263.08 243.145 263.097 243.115 263.115 243.085C265.95 237.982 267.453 232.249 267.485 226.413C267.517 220.578 266.077 214.828 263.298 209.695C260.519 204.561 256.491 200.21 251.584 197.041C246.678 193.872 241.052 191.989 235.225 191.564L235.225 191.564ZM266.111 232.615C265.438 236.125 264.212 239.506 262.479 242.633C262.449 242.687 262.42 242.742 262.391 242.792C259.13 248.623 254.224 253.367 248.284 256.434C247.689 256.744 247.087 257.034 246.478 257.304C245.971 257.53 245.452 257.748 244.928 257.949C244.71 258.032 244.484 258.12 244.262 258.196C242.782 258.735 241.266 259.169 239.725 259.493C238.582 259.737 237.426 259.918 236.264 260.037C235.547 260.116 234.823 260.171 234.089 260.196C233.62 260.217 233.151 260.229 232.677 260.229C230.573 260.23 228.473 260.034 226.406 259.643C225.147 259.413 223.903 259.108 222.681 258.731C220.819 258.158 219.009 257.426 217.272 256.543C217.071 256.438 216.87 256.333 216.673 256.225C216.388 256.074 216.103 255.919 215.827 255.756C215.617 255.639 215.408 255.513 215.202 255.392C215.081 255.321 214.964 255.25 214.842 255.174C209.054 251.601 204.463 246.387 201.653 240.198C201.527 239.921 201.406 239.641 201.288 239.361C199.123 234.195 198.27 228.575 198.804 223C199.337 217.425 201.242 212.068 204.348 207.406C207.454 202.744 211.666 198.92 216.608 196.275C221.55 193.63 227.07 192.246 232.677 192.246C233.251 192.246 233.821 192.258 234.387 192.292C234.668 192.3 234.948 192.321 235.225 192.342C240.006 192.704 244.656 194.07 248.872 196.351C253.087 198.631 256.774 201.775 259.689 205.577C262.605 209.378 264.684 213.752 265.79 218.411C266.897 223.07 267.006 227.911 266.111 232.615L266.111 232.615Z" fill="#00ADB5"/>
<path d="M224.851 206.418C224.669 204.499 222.315 203.317 220.474 203.897C218.634 204.477 217.425 206.328 217.06 208.22C216.884 209.018 216.868 209.841 217.011 210.645C217.155 211.448 217.456 212.216 217.897 212.903C218.828 214.24 220.537 215.075 222.132 214.735C223.952 214.348 225.214 212.572 225.574 210.749C225.935 208.925 225.577 207.045 225.219 205.22L224.851 206.418Z" fill="#2F2E41"/>
<path d="M250.755 209.159C250.572 207.24 248.219 206.059 246.378 206.638C244.537 207.218 243.329 209.069 242.964 210.962C242.788 211.759 242.771 212.583 242.915 213.386C243.059 214.19 243.36 214.957 243.801 215.644C244.731 216.982 246.441 217.816 248.036 217.477C249.856 217.089 251.117 215.314 251.478 213.49C251.839 211.666 251.481 209.786 251.123 207.962L250.755 209.159Z" fill="#2F2E41"/>
<path d="M166.238 63.7092C160.85 67.1549 154.608 69.0339 148.211 69.1356C141.815 69.2372 135.516 67.5575 130.021 64.2847C130.988 62.4876 132.213 60.8414 133.656 59.3986C135.884 57.1627 138.596 55.4666 141.583 54.4407C144.569 53.4148 147.752 53.0864 150.885 53.4807C154.019 53.8749 157.02 54.9814 159.659 56.715C162.297 58.4487 164.503 60.7634 166.106 63.4813C166.149 63.5547 166.195 63.6319 166.238 63.7092Z" fill="#00ADB5"/>
<path d="M146.617 45.2384C156.058 45.2384 163.711 37.5944 163.711 28.1652C163.711 18.736 156.058 11.092 146.617 11.092C137.177 11.092 129.524 18.736 129.524 28.1652C129.524 37.5944 137.177 45.2384 146.617 45.2384Z" fill="#2F2E41"/>
<path d="M157.661 40.2075C161.031 34.0496 158.765 26.3288 152.6 22.9625C146.435 19.5963 138.704 21.8594 135.334 28.0173C131.964 34.1753 134.23 41.8961 140.395 45.2623C146.56 48.6286 154.291 46.3654 157.661 40.2075Z" fill="#FFB8B8"/>
<path d="M134.805 26.1198C137.712 28.1211 141.163 29.1863 144.694 29.1722C143.434 30.0444 142.001 30.6336 140.491 30.8992C145.186 31.905 150.038 31.9322 154.743 30.9791C155.789 30.8116 156.798 30.4654 157.727 29.9557C158.189 29.6976 158.592 29.3453 158.91 28.9214C159.227 28.4976 159.451 28.0119 159.568 27.4957C159.881 25.7116 158.489 24.0906 157.042 22.9982C154.828 21.3511 152.274 20.2164 149.567 19.6759C146.859 19.1355 144.065 19.203 141.386 19.8735C139.638 20.325 137.886 21.0878 136.75 22.4907C135.614 23.8935 135.277 26.0561 136.359 27.5006L134.805 26.1198Z" fill="#2F2E41"/>
<path d="M147.665 0C138.437 0.0102476 129.59 3.67578 123.065 10.1925C116.54 16.7093 112.869 25.5451 112.857 34.7617C112.859 37.5733 113.205 40.3741 113.888 43.1017C113.959 43.382 114.03 43.6624 114.106 43.9386C116.113 51.2907 120.487 57.7791 126.551 62.4034C132.616 67.0277 140.035 69.5311 147.665 69.5276C155.296 69.5274 162.716 67.023 168.784 62.3996C174.851 57.7763 179.229 51.29 181.245 43.9386C181.321 43.6582 181.392 43.382 181.459 43.1017C182.721 37.9808 182.801 32.6404 181.693 27.4841C180.584 22.3278 178.317 17.4908 175.061 13.3387C171.806 9.18657 167.648 5.82812 162.902 3.51727C158.155 1.20643 152.945 0.0036894 147.665 0ZM180.663 43.1017C180.596 43.382 180.52 43.6624 180.441 43.9386C179.027 48.9669 176.473 53.6025 172.977 57.4859C169.48 61.3693 165.135 64.3962 160.278 66.3317C155.421 68.2673 150.183 69.0596 144.971 68.6472C139.758 68.2348 134.71 66.6288 130.219 63.9536C122.755 59.4675 117.281 52.3109 114.91 43.9386C114.831 43.6582 114.755 43.382 114.684 43.1017C113.986 40.3765 113.632 37.5747 113.632 34.7617C113.638 29.9466 114.667 25.1876 116.653 20.8C118.639 16.4123 121.535 12.4961 125.15 9.31073C128.766 6.12536 133.017 3.74354 137.623 2.32303C142.23 0.90252 147.086 0.475741 151.87 1.07096C156.654 1.66617 161.256 3.2698 165.373 5.77562C169.489 8.28145 173.026 11.6323 175.748 15.6062C178.471 19.5801 180.317 24.0863 181.164 28.8264C182.011 33.5666 181.84 38.4324 180.663 43.1017H180.663Z" fill="#00ADB5"/>
<path d="M53.3806 184.283C47.9933 187.728 41.7516 189.608 35.355 189.71C28.9585 189.812 22.6599 188.132 17.1652 184.86C17.2237 184.747 17.2865 184.634 17.3536 184.525C19.1161 181.352 21.6847 178.699 24.8006 176.832C27.9166 174.966 31.4699 173.953 35.1027 173.895C38.7355 173.837 42.3195 174.736 45.4937 176.501C48.6679 178.267 51.3202 180.837 53.1836 183.952C53.2088 183.985 53.2297 184.023 53.2507 184.057C53.2927 184.128 53.3387 184.207 53.3806 184.283Z" fill="#00ADB5"/>
<path d="M50.8542 148.738C50.8542 152.115 49.8516 155.416 47.9733 158.224C46.095 161.031 43.4253 163.22 40.3019 164.512C37.1784 165.804 33.7414 166.142 30.4255 165.483C27.1097 164.825 24.0639 163.198 21.6733 160.811C19.2827 158.423 17.6546 155.381 16.9951 152.069C16.3355 148.757 16.674 145.324 17.9678 142.205C19.2616 139.085 21.4526 136.418 24.2636 134.542C27.0747 132.666 30.3796 131.665 33.7604 131.665C36.0082 131.654 38.2359 132.089 40.3146 132.943C42.3934 133.797 44.2821 135.054 45.8715 136.642C47.461 138.229 48.7197 140.116 49.5749 142.192C50.4301 144.268 50.8649 146.493 50.8542 148.738Z" fill="#2F2E41"/>
<path d="M47.1546 159.346C46.959 159.838 46.7337 160.317 46.4802 160.782C44.8615 163.739 42.1333 165.932 38.8954 166.88C35.6576 167.828 32.1753 167.453 29.2145 165.837C27.7473 165.037 26.4523 163.956 25.4034 162.657C24.3545 161.357 23.5723 159.863 23.1016 158.261C22.6308 156.659 22.4807 154.981 22.6599 153.321C22.839 151.661 23.3438 150.053 24.1456 148.588C24.9473 147.123 26.0301 145.83 27.3323 144.783C28.6344 143.737 30.1303 142.956 31.7344 142.487C33.3386 142.018 35.0196 141.87 36.6813 142.05C38.343 142.23 39.9529 142.735 41.419 143.537C44.1388 145.022 46.2222 147.448 47.2782 150.359C48.3343 153.27 48.2904 156.466 47.1546 159.346Z" fill="#A0616A"/>
<path d="M60.147 131.54C59.8788 131.247 59.5981 130.958 59.309 130.678C54.6536 126.069 48.7894 122.869 42.3921 121.444C35.9949 120.02 29.3248 120.43 23.1505 122.626C16.9762 124.823 11.5489 128.717 7.49385 133.86C3.43882 139.003 0.921106 145.186 0.230787 151.696C-0.459532 158.206 0.70563 164.779 3.59204 170.656C6.47844 176.534 10.9686 181.477 16.5453 184.917C22.1219 188.356 28.558 190.153 35.1121 190.098C41.6662 190.044 48.0716 188.141 53.5902 184.609C55.6511 183.288 57.5679 181.755 59.309 180.035C59.594 179.755 59.8747 179.47 60.147 179.177C66.2259 172.733 69.6114 164.213 69.6114 155.359C69.6114 146.504 66.2259 137.984 60.147 131.54V131.54ZM59.309 178.935C57.4691 180.839 55.4134 182.523 53.1837 183.952C53.1796 183.956 53.1753 183.956 53.1712 183.96C47.8439 187.367 41.6722 189.225 35.3475 189.325C29.0228 189.426 22.7951 187.765 17.362 184.53C17.3579 184.53 17.3579 184.525 17.3536 184.525C13.1867 182.044 9.59926 178.7 6.83195 174.72C4.06464 170.74 2.18142 166.215 1.30861 161.448C0.435796 156.682 0.593562 151.784 1.77133 147.083C2.9491 142.382 5.11963 137.987 8.13736 134.193C11.1551 130.399 14.9502 127.293 19.2683 125.084C23.5863 122.874 28.3274 121.613 33.1735 121.384C38.0197 121.155 42.8589 121.963 47.3665 123.755C51.8741 125.547 55.946 128.281 59.309 131.774C59.5981 132.067 59.8747 132.368 60.147 132.674C65.742 138.907 68.8362 146.983 68.8362 155.354C68.8362 163.726 65.742 171.802 60.147 178.035C59.8788 178.341 59.5981 178.642 59.309 178.935Z" fill="#00ADB5"/>
<path d="M47.6145 134.56C46.7725 133.132 45.5517 131.965 44.0871 131.187C42.6226 130.408 40.9711 130.049 39.3152 130.149C37.5771 130.279 35.9233 130.919 34.2995 131.552L26.0439 134.768C23.9077 135.601 21.5681 136.62 20.6411 138.715C19.7807 140.659 20.4226 142.904 21.0724 144.929L24.1612 154.55C24.5844 152.389 25.0143 150.206 25.9115 148.194C26.8087 146.183 28.2277 144.328 30.1895 143.322C32.3339 142.224 34.8614 142.246 37.2687 142.362C40.6781 142.526 44.3851 142.959 46.8075 145.361C48.0934 146.725 48.9652 148.426 49.3215 150.265C49.6722 152.095 49.8487 153.954 49.8487 155.816C51.2468 153.416 52.4245 150.894 53.3674 148.282C54.143 146.337 54.585 144.275 54.6748 142.183C54.6933 140.094 54.1011 137.939 52.7064 136.382C51.3116 134.825 49.0391 133.984 47.0405 134.601" fill="#2F2E41"/>
<path d="M21.5821 88.6483L20.7442 88.6385C20.7542 87.8016 20.7783 86.9522 20.816 86.1143L21.6531 86.1519C21.6159 86.9806 21.592 87.8206 21.5821 88.6483Z" fill="#00ADB5" fill-opacity="0.5"/>
<path d="M22.0211 81.3727L21.1881 81.282C21.3631 79.6823 21.5922 78.069 21.8691 76.4869L22.6946 76.6311C22.4207 78.1955 22.1941 79.7908 22.0211 81.3727ZM23.6728 71.9424L22.8584 71.7454C23.2376 70.1825 23.6731 68.6121 24.1527 67.0774L24.9526 67.3267C24.4783 68.8442 24.0477 70.3973 23.6728 71.9424ZM26.5312 62.7984L25.7492 62.4976C26.3279 60.9962 26.9637 59.4938 27.6389 58.032L28.3997 58.3826C27.7321 59.828 27.1034 61.3137 26.5312 62.7984ZM30.5499 54.0973L29.8134 53.6984C30.5805 52.2853 31.4045 50.8777 32.2625 49.5146L32.9719 49.9601C32.1234 51.308 31.3086 52.6999 30.5499 54.0973L30.5499 54.0973ZM35.6546 45.9873L34.9753 45.4973C35.918 44.1935 36.9155 42.9032 37.94 41.6623L38.5865 42.1948C37.5733 43.422 36.5869 44.6978 35.6546 45.9873V45.9873ZM41.7548 38.5978L41.1438 38.0253C42.2446 36.8533 43.3985 35.7011 44.5733 34.6003L45.1465 35.2109C43.9847 36.2993 42.8436 37.4389 41.7548 38.5978V38.5978ZM48.7474 32.0475L48.2144 31.4018C49.4564 30.3789 50.7477 29.3832 52.0523 28.4425L52.5428 29.1209C51.2527 30.0514 49.9757 31.0361 48.7474 32.0475V32.0475ZM56.5175 26.4438L56.0715 25.7352C57.4344 24.8795 58.8422 24.0575 60.2559 23.2919L60.6553 24.0274C59.2574 24.7847 57.8652 25.5975 56.5175 26.4438V26.4438ZM64.9392 21.883L64.5882 21.1229C66.0484 20.4501 67.5497 19.816 69.0506 19.2384L69.3518 20.0193C67.8677 20.5904 66.3831 21.2175 64.9392 21.883V21.883ZM73.8743 18.445L73.6243 17.6461C75.1601 17.1665 76.7324 16.7309 78.2974 16.3514L78.495 17.1647C76.9476 17.54 75.393 17.9708 73.8743 18.445V18.445ZM83.1888 16.1857L83.0442 15.3615C84.6279 15.0842 86.243 14.8548 87.8448 14.6794L87.9361 15.5115C86.352 15.6847 84.7548 15.9118 83.1888 16.1858V16.1857Z" fill="#00ADB5" fill-opacity="0.5"/>
<path d="M92.7494 15.141L92.7118 14.3049C93.5512 14.2673 94.4014 14.2432 95.239 14.2332L95.2491 15.0701C94.4205 15.0799 93.5795 15.1038 92.7494 15.141Z" fill="#00ADB5" fill-opacity="0.5"/>
<path d="M24.6767 85.958L24.078 85.3718L21.1897 88.3223L18.4538 85.2295L17.8258 85.7848L21.1587 89.5509L24.6767 85.958Z" fill="#00ADB5" fill-opacity="0.5"/>
<path d="M92.5557 18.1608L91.9687 17.5628L94.9228 14.678L91.8263 11.9454L92.3822 11.3181L96.1529 14.647L92.5557 18.1608Z" fill="#00ADB5" fill-opacity="0.5"/>
<path d="M217.915 23.4159C217.178 23.0282 216.435 22.6472 215.686 22.273L216.061 21.5247C216.815 21.9012 217.563 22.2847 218.306 22.6751L217.915 23.4159Z" fill="#00ADB5" fill-opacity="0.5"/>
<path d="M274.855 177.882L274.08 177.564C274.71 176.028 275.316 174.46 275.882 172.906L276.669 173.191C276.1 174.757 275.49 176.335 274.855 177.882ZM278.29 168.43L277.492 168.177C277.994 166.597 278.47 164.985 278.907 163.387L279.715 163.607C279.275 165.216 278.796 166.839 278.29 168.43ZM280.94 158.729L280.123 158.542C280.494 156.925 280.836 155.279 281.139 153.651L281.963 153.804C281.657 155.444 281.313 157.1 280.94 158.729V158.729ZM282.781 148.842L281.952 148.723C282.188 147.082 282.393 145.414 282.561 143.765L283.394 143.85C283.225 145.51 283.019 147.189 282.781 148.842V148.842ZM283.801 138.836L282.964 138.786C283.064 137.132 283.131 135.452 283.162 133.794L284 133.81C283.968 135.48 283.901 137.171 283.801 138.836ZM283.992 128.78L283.155 128.798C283.138 128.07 283.116 127.343 283.087 126.617C283.049 125.685 283 124.739 282.941 123.807L283.778 123.754C283.837 124.693 283.886 125.645 283.924 126.583C283.953 127.315 283.976 128.047 283.992 128.78L283.992 128.78ZM282.524 118.831C282.352 117.182 282.143 115.515 281.903 113.875L282.732 113.754C282.974 115.405 283.184 117.084 283.358 118.744L282.524 118.831ZM281.08 108.949C280.774 107.321 280.43 105.676 280.057 104.059L280.873 103.871C281.249 105.499 281.596 107.155 281.904 108.794L281.08 108.949ZM278.835 99.2151C278.396 97.6149 277.919 96.0031 277.416 94.4241L278.215 94.1705C278.721 95.7602 279.201 97.3831 279.643 98.9942L278.835 99.2151ZM275.804 89.6947C275.237 88.1361 274.63 86.568 274 85.0339L274.775 84.7162C275.409 86.2609 276.02 87.8397 276.591 89.4088L275.804 89.6947ZM272.007 80.45C271.315 78.9421 270.582 77.4284 269.829 75.9506L270.576 75.571C271.334 77.0588 272.071 78.5828 272.768 80.1009L272.007 80.45ZM267.469 71.5433C266.656 70.0973 265.802 68.6481 264.93 67.236L265.643 66.7968C266.521 68.2185 267.381 69.6777 268.199 71.1337L267.469 71.5433ZM262.216 63.0356C261.287 61.66 260.317 60.2851 259.333 58.9495L260.008 58.4534C260.999 59.7982 261.976 61.1826 262.911 62.5678L262.216 63.0356ZM256.283 54.9845C255.243 53.6887 254.163 52.398 253.072 51.1482L253.704 50.5982C254.802 51.8567 255.89 53.1563 256.937 54.461L256.283 54.9845ZM249.705 47.4468C248.562 46.2407 247.378 45.043 246.188 43.8868L246.772 43.2868C247.971 44.4509 249.162 45.657 250.314 46.8712L249.705 47.4468ZM242.526 40.4743C241.287 39.3668 240.008 38.2704 238.725 37.2154L239.257 36.5692C240.549 37.6316 241.837 38.7356 243.084 39.8507L242.526 40.4743ZM234.792 34.1155C233.47 33.1173 232.107 32.1311 230.741 31.1846L231.219 30.4968C232.594 31.4499 233.967 32.4429 235.297 33.4479L234.792 34.1155ZM226.573 28.4224C225.175 27.5358 223.736 26.6643 222.296 25.8317L222.716 25.1074C224.166 25.9455 225.615 26.8231 227.022 27.7157L226.573 28.4224Z" fill="#00ADB5" fill-opacity="0.5"/>
<path d="M271.775 184.781L271.02 184.418C271.384 183.665 271.74 182.91 272.087 182.153L272.848 182.501C272.499 183.263 272.141 184.023 271.775 184.781Z" fill="#00ADB5" fill-opacity="0.5"/>
<path d="M216.736 26.2348L217.526 25.9565L216.149 22.066L220.135 20.978L219.913 20.1704L215.059 21.4961L216.736 26.2348Z" fill="#00ADB5" fill-opacity="0.5"/>
<path d="M269.429 180.641L270.225 180.379L271.514 184.299L275.335 182.729L275.653 183.504L270.999 185.416L269.429 180.641Z" fill="#00ADB5" fill-opacity="0.5"/>
</svg>
