<svg width="305" height="164" viewBox="0 0 305 164" fill="none" xmlns="http://www.w3.org/2000/svg">
<path d="M19.3189 136.968L18.3675 141.723C18.2958 142.086 18.2209 142.456 18.1394 142.823C17.3443 142.659 16.5198 142.705 15.748 142.956C16.3604 143.828 16.9091 144.742 17.3901 145.692C16.7906 147.532 15.9109 149.233 14.4382 150.463C13.4547 151.266 12.2799 151.804 11.0273 152.023C9.77466 152.243 8.48639 152.137 7.28674 151.716L7.32909 151.528C5.74566 148.467 6.60579 144.608 8.57368 141.781C9.57738 140.386 10.7666 139.134 12.1087 138.058C13.438 136.955 14.8748 135.965 16.2986 134.988C16.6184 134.769 16.9965 134.65 17.3845 134.646C17.7726 134.642 18.1531 134.753 18.4773 134.966C18.8015 135.178 19.0547 135.482 19.2046 135.839C19.3545 136.196 19.3943 136.589 19.3189 136.968Z" fill="#E4E4E4"/>
<path d="M7.62553 163.157C7.22511 160.251 6.81329 157.308 7.09413 154.371C7.3437 151.763 8.14227 149.215 9.7687 147.126C10.6319 146.02 11.6823 145.072 12.8727 144.324C13.1832 144.13 13.4686 144.619 13.1597 144.814C11.1002 146.11 9.50722 148.025 8.61045 150.281C7.61999 152.791 7.461 155.527 7.63302 158.192C7.7363 159.804 7.95492 161.406 8.17549 163.006C8.19325 163.078 8.18257 163.154 8.14562 163.219C8.10868 163.284 8.04827 163.332 7.97675 163.354C7.90401 163.374 7.82646 163.364 7.76094 163.327C7.69542 163.29 7.64723 163.228 7.62683 163.156L7.62553 163.157Z" fill="#F2F2F2"/>
<path d="M11.062 17.4076C25.0188 17.1658 38.9771 17.1311 52.9368 17.3034C66.8946 17.4767 80.8477 17.858 94.796 18.4472C102.623 18.7779 110.447 19.174 118.268 19.6356C118.896 19.6726 118.894 18.6988 118.268 18.6619C104.333 17.8405 90.3884 17.2259 76.4336 16.8181C62.4807 16.4113 48.5238 16.2125 34.5629 16.2217C26.7289 16.2269 18.8952 16.2977 11.062 16.4339C10.4338 16.4448 10.4318 17.4185 11.062 17.4076V17.4076Z" fill="#E6E6E6"/>
<path d="M108.328 11.3023L114.43 10.8498C115.054 10.8036 115.059 9.82953 114.43 9.87613L108.328 10.3286C107.704 10.3748 107.699 11.3489 108.328 11.3023Z" fill="#E6E6E6"/>
<path d="M108.328 17.1443L114.43 16.6919C115.054 16.6456 115.059 15.6716 114.43 15.7182L108.328 16.1707C107.704 16.2169 107.699 17.1909 108.328 17.1443Z" fill="#E6E6E6"/>
<path d="M107.868 14.4766L116.545 15.2618C117.172 15.3185 117.168 14.3445 116.545 14.2881L107.868 13.5029C107.242 13.4462 107.246 14.4202 107.868 14.4766Z" fill="#E6E6E6"/>
<path d="M14.6737 9.99272C14.2493 9.99011 13.8336 10.112 13.4782 10.3432C13.1229 10.5744 12.8437 10.9046 12.6755 11.2928C12.4873 11.6727 12.4293 12.1035 12.5101 12.5194C12.591 12.9353 12.8064 13.3134 13.1234 13.5958C13.4214 13.8483 13.7787 14.0215 14.1621 14.0991C14.5455 14.1767 14.9424 14.1562 15.3157 14.0395C15.6974 13.9067 16.0285 13.6592 16.2632 13.3313C16.498 13.0033 16.6249 12.6109 16.6265 12.2081C16.6436 11.7612 16.522 11.3199 16.2785 10.9442C16.0349 10.5686 15.6811 10.2768 15.2651 10.1085C15.1401 10.0747 15.0068 10.0914 14.8942 10.1551C14.7816 10.2188 14.6988 10.3243 14.6639 10.4485C14.6331 10.5729 14.6513 10.7043 14.7148 10.8157C14.7783 10.9271 14.8823 11.01 15.0053 11.0474C15.0905 11.0802 14.9275 11.0057 15.007 11.0488C15.0397 11.0666 15.073 11.0826 15.1051 11.1016C15.1324 11.1177 15.1586 11.1353 15.1851 11.1526C15.2763 11.2119 15.1406 11.109 15.1989 11.1623C15.2495 11.2086 15.2996 11.2537 15.3455 11.3047C15.3629 11.324 15.431 11.3777 15.3781 11.3402C15.3376 11.3115 15.3625 11.3182 15.3781 11.3413C15.3899 11.3587 15.4024 11.3758 15.4141 11.3933C15.4522 11.4508 15.4868 11.5104 15.5178 11.572C15.525 11.5862 15.5316 11.6008 15.5389 11.6149C15.5526 11.6415 15.5724 11.6485 15.5402 11.6152C15.5095 11.5834 15.5291 11.5856 15.5401 11.6162C15.5473 11.6363 15.5552 11.6561 15.5622 11.6763C15.5851 11.742 15.6044 11.8088 15.6198 11.8766C15.627 11.908 15.6328 11.9395 15.6389 11.971C15.6608 12.0828 15.6358 11.9015 15.641 11.9846C15.6454 12.0539 15.6506 12.1225 15.6494 12.1921C15.6488 12.224 15.6474 12.2558 15.6452 12.2876C15.6441 12.3034 15.6423 12.3192 15.6412 12.3351C15.6362 12.4115 15.636 12.3072 15.6467 12.3C15.6244 12.3649 15.6096 12.4321 15.6026 12.5003C15.5938 12.5306 15.5834 12.5602 15.5737 12.5901C15.5397 12.6946 15.6056 12.5332 15.5694 12.6046C15.5395 12.6659 15.5062 12.7255 15.4695 12.783C15.4536 12.8071 15.3936 12.8615 15.4427 12.8236C15.4959 12.7825 15.4147 12.8533 15.3974 12.8715C15.3751 12.8949 15.352 12.9174 15.3281 12.9392C15.3128 12.9541 15.2966 12.9681 15.2796 12.9812C15.2765 12.9796 15.3613 12.9248 15.3156 12.9538C15.2575 12.9907 15.2025 13.0302 15.1413 13.0623C15.1342 13.066 15.056 13.1021 15.0563 13.1034C15.0529 13.0903 15.1569 13.067 15.0855 13.0899C15.0705 13.0948 15.0558 13.1006 15.0409 13.1056C14.9759 13.1274 14.9096 13.145 14.8424 13.1583C14.827 13.1613 14.8107 13.1629 14.7955 13.1668C14.745 13.1798 14.8438 13.1592 14.8468 13.1609C14.8094 13.1593 14.772 13.1626 14.7356 13.1707C14.6662 13.1746 14.5967 13.1746 14.5274 13.1706C14.5113 13.1697 14.4953 13.1681 14.4793 13.1672C14.442 13.1651 14.4147 13.1383 14.4643 13.1673C14.5025 13.1897 14.4993 13.1734 14.4654 13.1672C14.4496 13.1642 14.4337 13.1618 14.4178 13.1588C14.3492 13.146 14.2813 13.1295 14.2145 13.1092C14.1786 13.0983 14.1434 13.0856 14.1079 13.0733C14.0925 13.0688 14.0774 13.063 14.0629 13.056C14.0627 13.052 14.1543 13.0996 14.106 13.0737C14.0449 13.0409 13.9818 13.0134 13.9222 12.9776C13.8904 12.9585 13.8598 12.9377 13.8289 12.9172C13.8153 12.9091 13.8024 12.8998 13.7902 12.8896C13.7912 12.8855 13.866 12.9545 13.8268 12.9173C13.7771 12.8702 13.7241 12.828 13.6771 12.7778C13.6663 12.7664 13.6561 12.7543 13.6454 12.7428L13.6351 12.731C13.6086 12.6988 13.6081 12.6989 13.6336 12.7315C13.6595 12.7391 13.6583 12.7674 13.6337 12.7306C13.625 12.7175 13.6157 12.7048 13.6069 12.6917C13.5672 12.6354 13.5334 12.5752 13.5059 12.512C13.5083 12.5102 13.5482 12.6291 13.5177 12.5393C13.5119 12.5224 13.5054 12.5057 13.4998 12.4887C13.4885 12.455 13.4787 12.4209 13.4701 12.3864C13.4617 12.3522 13.4573 12.317 13.4488 12.283C13.4344 12.2256 13.4572 12.3282 13.4546 12.3256C13.4465 12.3176 13.4499 12.2679 13.4493 12.256C13.4454 12.1796 13.4541 12.1055 13.4555 12.0295C13.4566 11.9707 13.4506 12.0754 13.4494 12.0723C13.4497 12.0547 13.4528 12.0372 13.4587 12.0206C13.4675 11.9806 13.4757 11.9405 13.4866 11.9009C13.499 11.8556 13.5133 11.8108 13.5294 11.7666C13.5354 11.75 13.5428 11.7337 13.5484 11.717C13.569 11.6559 13.5077 11.7909 13.5415 11.7357C13.588 11.6599 13.6226 11.5778 13.672 11.5029C13.6837 11.4851 13.7548 11.3862 13.7171 11.4362C13.6795 11.4859 13.7557 11.3916 13.7701 11.3756C13.8301 11.3091 13.9006 11.2545 13.9626 11.1909C13.9994 11.1532 13.937 11.2094 13.9333 11.2121C13.9525 11.1984 13.9713 11.1842 13.9908 11.1708C14.0247 11.1475 14.0595 11.1255 14.0951 11.1047C14.1352 11.0813 14.1805 11.0639 14.2194 11.0391C14.2653 11.0098 14.1843 11.052 14.1828 11.0528C14.2038 11.0425 14.2257 11.0342 14.2483 11.028C14.2861 11.0146 14.4507 10.9439 14.4852 10.966C14.4837 10.965 14.3603 10.9759 14.46 10.9695C14.4836 10.968 14.5071 10.9657 14.5307 10.9647C14.5785 10.9628 14.6261 10.964 14.6738 10.9664C14.8031 10.9656 14.9269 10.914 15.0184 10.8229C15.1099 10.7318 15.1616 10.6084 15.1625 10.4796C15.1597 10.3513 15.1073 10.2291 15.0163 10.1384C14.9252 10.0477 14.8025 9.99549 14.6738 9.99273L14.6737 9.99272Z" fill="#E6E6E6"/>
<path d="M21.5158 9.99272C21.0914 9.99011 20.6756 10.112 20.3203 10.3432C19.9649 10.5744 19.6858 10.9046 19.5176 11.2928C19.3294 11.6727 19.2713 12.1035 19.3522 12.5194C19.4331 12.9353 19.6485 13.3134 19.9654 13.5958C20.2634 13.8483 20.6208 14.0215 21.0042 14.0991C21.3876 14.1767 21.7844 14.1562 22.1577 14.0395C22.5395 13.9067 22.8705 13.6592 23.1052 13.3313C23.34 13.0033 23.4669 12.6109 23.4686 12.2081C23.4856 11.7612 23.3641 11.3199 23.1205 10.9442C22.8769 10.5686 22.5231 10.2768 22.1072 10.1085C21.9822 10.0747 21.8489 10.0914 21.7363 10.1551C21.6236 10.2188 21.5409 10.3243 21.506 10.4485C21.4752 10.5729 21.4934 10.7043 21.5569 10.8157C21.6204 10.9271 21.7243 11.01 21.8473 11.0474C21.9325 11.0802 21.7695 11.0057 21.849 11.0488C21.8817 11.0666 21.9151 11.0826 21.9472 11.1016C21.9745 11.1177 22.0006 11.1353 22.0271 11.1526C22.1184 11.2119 21.9826 11.109 22.0409 11.1623C22.0915 11.2086 22.1416 11.2537 22.1876 11.3047C22.2049 11.324 22.273 11.3777 22.2201 11.3402C22.1796 11.3115 22.2045 11.3182 22.2201 11.3413C22.2319 11.3587 22.2445 11.3758 22.2561 11.3933C22.2943 11.4508 22.3289 11.5104 22.3599 11.572C22.3671 11.5862 22.3736 11.6008 22.3809 11.6149C22.3946 11.6415 22.4144 11.6485 22.3823 11.6152C22.3515 11.5834 22.3711 11.5856 22.3821 11.6162C22.3893 11.6363 22.3972 11.6561 22.4043 11.6763C22.4272 11.742 22.4464 11.8088 22.4619 11.8766C22.4691 11.908 22.4748 11.9395 22.481 11.971C22.5028 12.0828 22.4778 11.9015 22.4831 11.9846C22.4875 12.0539 22.4926 12.1225 22.4914 12.1921C22.4908 12.224 22.4894 12.2558 22.4872 12.2876C22.4861 12.3034 22.4843 12.3192 22.4833 12.3351C22.4782 12.4115 22.478 12.3072 22.4888 12.3C22.4664 12.3649 22.4516 12.4321 22.4446 12.5003C22.4359 12.5306 22.4255 12.5602 22.4157 12.5901C22.3817 12.6946 22.4476 12.5332 22.4114 12.6046C22.3816 12.6659 22.3482 12.7255 22.3116 12.783C22.2956 12.8071 22.2356 12.8615 22.2847 12.8236C22.338 12.7825 22.2568 12.8533 22.2394 12.8715C22.2172 12.8949 22.1941 12.9174 22.1701 12.9392C22.1548 12.9541 22.1386 12.9681 22.1216 12.9812C22.1185 12.9796 22.2033 12.9248 22.1576 12.9538C22.0995 12.9907 22.0446 13.0302 21.9834 13.0623C21.9762 13.066 21.898 13.1021 21.8983 13.1034C21.8949 13.0903 21.9989 13.067 21.9275 13.0899C21.9126 13.0948 21.8979 13.1006 21.8829 13.1056C21.818 13.1274 21.7516 13.145 21.6844 13.1583C21.669 13.1613 21.6527 13.1629 21.6376 13.1668C21.587 13.1798 21.6858 13.1592 21.6888 13.1609C21.6515 13.1593 21.6141 13.1626 21.5776 13.1707C21.5083 13.1746 21.4387 13.1746 21.3694 13.1706C21.3534 13.1697 21.3373 13.1681 21.3213 13.1672C21.2841 13.1651 21.2567 13.1383 21.3063 13.1673C21.3445 13.1897 21.3414 13.1734 21.3075 13.1672C21.2916 13.1642 21.2757 13.1618 21.2599 13.1588C21.1912 13.146 21.1234 13.1295 21.0566 13.1092C21.0206 13.0983 20.9854 13.0856 20.95 13.0733C20.9345 13.0688 20.9195 13.063 20.905 13.056C20.9048 13.052 20.9964 13.0996 20.948 13.0737C20.887 13.0409 20.8238 13.0134 20.7642 12.9776C20.7324 12.9585 20.7019 12.9377 20.6709 12.9172C20.6573 12.9091 20.6444 12.8998 20.6323 12.8896C20.6333 12.8855 20.708 12.9545 20.6688 12.9173C20.6192 12.8702 20.5661 12.828 20.5191 12.7778C20.5083 12.7664 20.4982 12.7543 20.4875 12.7428L20.4771 12.731C20.4506 12.6988 20.4501 12.6989 20.4756 12.7315C20.5015 12.7391 20.5003 12.7674 20.4758 12.7306C20.467 12.7175 20.4577 12.7048 20.449 12.6917C20.4093 12.6354 20.3754 12.5752 20.3479 12.512C20.3503 12.5102 20.3903 12.6291 20.3597 12.5393C20.354 12.5224 20.3475 12.5057 20.3418 12.4887C20.3306 12.455 20.3207 12.4209 20.3122 12.3864C20.3037 12.3522 20.2994 12.317 20.2909 12.283C20.2765 12.2256 20.2992 12.3282 20.2966 12.3256C20.2885 12.3176 20.292 12.2679 20.2914 12.256C20.2874 12.1796 20.2962 12.1055 20.2975 12.0295C20.2986 11.9707 20.2927 12.0754 20.2914 12.0723C20.2917 12.0547 20.2949 12.0372 20.3007 12.0206C20.3096 11.9806 20.3178 11.9405 20.3286 11.9009C20.341 11.8556 20.3553 11.8108 20.3714 11.7666C20.3775 11.75 20.3848 11.7337 20.3905 11.717C20.411 11.6559 20.3497 11.7909 20.3835 11.7357C20.43 11.6599 20.4647 11.5778 20.514 11.5029C20.5257 11.4851 20.5968 11.3862 20.5591 11.4362C20.5215 11.4859 20.5977 11.3916 20.6122 11.3756C20.6721 11.3091 20.7426 11.2545 20.8047 11.1909C20.8414 11.1532 20.779 11.2094 20.7753 11.2121C20.7946 11.1984 20.8134 11.1842 20.8328 11.1708C20.8668 11.1475 20.9015 11.1255 20.9371 11.1047C20.9772 11.0813 21.0226 11.0639 21.0614 11.0391C21.1073 11.0098 21.0263 11.052 21.0249 11.0528C21.0458 11.0425 21.0678 11.0342 21.0903 11.028C21.1282 11.0146 21.2928 10.9439 21.3273 10.966C21.3257 10.965 21.2023 10.9759 21.3021 10.9695C21.3256 10.968 21.3491 10.9657 21.3727 10.9647C21.4205 10.9628 21.4681 10.964 21.5158 10.9664C21.6452 10.9656 21.769 10.914 21.8604 10.8229C21.9519 10.7318 22.0037 10.6084 22.0045 10.4796C22.0017 10.3513 21.9494 10.2291 21.8583 10.1384C21.7673 10.0477 21.6445 9.99549 21.5158 9.99273L21.5158 9.99272Z" fill="#E6E6E6"/>
<path d="M28.3577 9.99272C27.9333 9.99011 27.5175 10.112 27.1622 10.3432C26.8068 10.5744 26.5277 10.9046 26.3595 11.2928C26.1713 11.6727 26.1132 12.1035 26.1941 12.5194C26.275 12.9353 26.4904 13.3134 26.8073 13.5958C27.1053 13.8483 27.4627 14.0215 27.8461 14.0991C28.2295 14.1767 28.6264 14.1562 28.9996 14.0395C29.3814 13.9067 29.7124 13.6592 29.9472 13.3313C30.1819 13.0033 30.3088 12.6109 30.3105 12.2081C30.3275 11.7612 30.206 11.3199 29.9624 10.9442C29.7188 10.5686 29.365 10.2768 28.9491 10.1085C28.8241 10.0747 28.6908 10.0914 28.5782 10.1551C28.4656 10.2188 28.3828 10.3243 28.3479 10.4485C28.3171 10.5729 28.3353 10.7043 28.3988 10.8157C28.4623 10.9271 28.5662 11.01 28.6892 11.0474C28.7744 11.0802 28.6114 11.0057 28.691 11.0488C28.7237 11.0666 28.757 11.0826 28.7891 11.1016C28.8164 11.1177 28.8425 11.1353 28.8691 11.1526C28.9603 11.2119 28.8245 11.109 28.8828 11.1623C28.9334 11.2086 28.9835 11.2537 29.0295 11.3047C29.0469 11.324 29.1149 11.3777 29.062 11.3402C29.0215 11.3115 29.0464 11.3182 29.062 11.3413C29.0739 11.3587 29.0864 11.3758 29.0981 11.3933C29.1362 11.4508 29.1708 11.5104 29.2018 11.572C29.209 11.5862 29.2155 11.6008 29.2228 11.6149C29.2365 11.6415 29.2564 11.6485 29.2242 11.6152C29.1935 11.5834 29.213 11.5856 29.224 11.6162C29.2313 11.6363 29.2392 11.6561 29.2462 11.6763C29.2691 11.742 29.2883 11.8088 29.3038 11.8766C29.311 11.908 29.3167 11.9395 29.3229 11.971C29.3447 12.0828 29.3197 11.9015 29.325 11.9846C29.3294 12.0539 29.3345 12.1225 29.3333 12.1921C29.3328 12.224 29.3314 12.2558 29.3291 12.2876C29.328 12.3034 29.3262 12.3192 29.3252 12.3351C29.3201 12.4115 29.32 12.3072 29.3307 12.3C29.3084 12.3649 29.2935 12.4321 29.2865 12.5003C29.2778 12.5306 29.2674 12.5602 29.2576 12.5901C29.2236 12.6946 29.2896 12.5332 29.2533 12.6046C29.2235 12.6659 29.1902 12.7255 29.1535 12.783C29.1376 12.8071 29.0775 12.8615 29.1266 12.8236C29.1799 12.7825 29.0987 12.8533 29.0813 12.8715C29.0591 12.8949 29.036 12.9174 29.012 12.9392C28.9967 12.9541 28.9805 12.9681 28.9636 12.9812C28.9605 12.9796 29.0452 12.9248 28.9995 12.9538C28.9415 12.9907 28.8865 13.0302 28.8253 13.0623C28.8182 13.066 28.7399 13.1021 28.7402 13.1034C28.7369 13.0903 28.8408 13.067 28.7695 13.0899C28.7545 13.0948 28.7398 13.1006 28.7248 13.1056C28.6599 13.1274 28.5936 13.145 28.5263 13.1583C28.5109 13.1613 28.4946 13.1629 28.4795 13.1668C28.429 13.1798 28.5278 13.1592 28.5307 13.1609C28.4934 13.1593 28.456 13.1626 28.4195 13.1707C28.3502 13.1746 28.2807 13.1746 28.2113 13.1706C28.1953 13.1697 28.1793 13.1681 28.1632 13.1672C28.126 13.1651 28.0987 13.1383 28.1482 13.1673C28.1864 13.1897 28.1833 13.1734 28.1494 13.1672C28.1336 13.1642 28.1176 13.1618 28.1018 13.1588C28.0332 13.146 27.9653 13.1295 27.8985 13.1092C27.8626 13.0983 27.8273 13.0856 27.7919 13.0733C27.7764 13.0688 27.7614 13.063 27.7469 13.056C27.7467 13.052 27.8383 13.0996 27.7899 13.0737C27.7289 13.0409 27.6658 13.0134 27.6062 12.9776C27.5743 12.9585 27.5438 12.9377 27.5129 12.9172C27.4993 12.9091 27.4863 12.8998 27.4742 12.8896C27.4752 12.8855 27.5499 12.9545 27.5107 12.9173C27.4611 12.8702 27.408 12.828 27.361 12.7778C27.3503 12.7664 27.3401 12.7543 27.3294 12.7428L27.319 12.731C27.2925 12.6988 27.292 12.6989 27.3175 12.7315C27.3434 12.7391 27.3423 12.7674 27.3177 12.7306C27.3089 12.7175 27.2996 12.7048 27.2909 12.6917C27.2512 12.6354 27.2173 12.5752 27.1899 12.512C27.1922 12.5102 27.2322 12.6291 27.2016 12.5393C27.1959 12.5224 27.1894 12.5057 27.1837 12.4887C27.1725 12.455 27.1626 12.4209 27.1541 12.3864C27.1456 12.3522 27.1413 12.317 27.1328 12.283C27.1184 12.2256 27.1412 12.3282 27.1386 12.3256C27.1304 12.3176 27.1339 12.2679 27.1333 12.256C27.1294 12.1796 27.1381 12.1055 27.1395 12.0295C27.1405 11.9707 27.1346 12.0754 27.1334 12.0723C27.1337 12.0547 27.1368 12.0372 27.1426 12.0206C27.1515 11.9806 27.1597 11.9405 27.1705 11.9009C27.1829 11.8556 27.1972 11.8108 27.2134 11.7666C27.2194 11.75 27.2268 11.7337 27.2324 11.717C27.2529 11.6559 27.1916 11.7909 27.2254 11.7357C27.2719 11.6599 27.3066 11.5778 27.3559 11.5029C27.3676 11.4851 27.4388 11.3862 27.401 11.4362C27.3634 11.4859 27.4396 11.3916 27.4541 11.3756C27.514 11.3091 27.5845 11.2545 27.6466 11.1909C27.6833 11.1532 27.6209 11.2094 27.6173 11.2121C27.6365 11.1984 27.6553 11.1842 27.6748 11.1708C27.7087 11.1475 27.7435 11.1255 27.7791 11.1047C27.8191 11.0813 27.8645 11.0639 27.9033 11.0391C27.9492 11.0098 27.8682 11.052 27.8668 11.0528C27.8877 11.0425 27.9097 11.0342 27.9323 11.028C27.9701 11.0146 28.1347 10.9439 28.1692 10.966C28.1676 10.965 28.0442 10.9759 28.144 10.9695C28.1676 10.968 28.191 10.9657 28.2147 10.9647C28.2624 10.9628 28.31 10.964 28.3577 10.9664C28.4871 10.9656 28.6109 10.914 28.7024 10.8229C28.7938 10.7318 28.8456 10.6084 28.8464 10.4796C28.8437 10.3513 28.7913 10.2291 28.7002 10.1384C28.6092 10.0477 28.4865 9.99549 28.3577 9.99273L28.3577 9.99272Z" fill="#E6E6E6"/>
<path d="M127.199 117.816H7.33269C5.81696 117.814 4.36379 117.214 3.29199 116.146C2.2202 115.079 1.61731 113.631 1.6156 112.121V5.69521C1.6173 4.18527 2.22018 2.73765 3.29197 1.66996C4.36377 0.602266 5.81695 0.00169319 7.33269 0H127.199C128.715 0.00169319 130.168 0.602265 131.24 1.66996C132.312 2.73765 132.915 4.18527 132.917 5.69521V112.121C132.915 113.631 132.312 115.079 131.24 116.146C130.168 117.214 128.715 117.814 127.199 117.816ZM7.33269 0.649125C5.98972 0.650647 4.70218 1.18278 3.75255 2.12877C2.80292 3.07477 2.26875 4.35737 2.26722 5.69521V112.121C2.26878 113.459 2.80297 114.741 3.7526 115.687C4.70222 116.633 5.98974 117.165 7.33269 117.167H127.199C128.542 117.165 129.83 116.633 130.78 115.687C131.729 114.741 132.263 113.459 132.265 112.121V5.69521C132.263 4.35737 131.729 3.07477 130.78 2.12877C129.83 1.18278 128.542 0.650648 127.199 0.649125H7.33269Z" fill="#E6E6E6"/>
<path d="M7.13406 72.4118L49.287 72.284L91.2248 72.157L114.882 72.0853C115.009 72.0809 115.129 72.0277 115.217 71.9369C115.305 71.846 115.354 71.7247 115.354 71.5984C115.354 71.4721 115.305 71.3508 115.217 71.26C115.129 71.1692 115.009 71.1159 114.882 71.1116L72.7291 71.2393L30.7913 71.3664L7.13406 71.4381C7.00738 71.4424 6.88735 71.4957 6.79928 71.5865C6.71121 71.6773 6.66199 71.7986 6.66199 71.9249C6.66199 72.0512 6.71121 72.1725 6.79928 72.2634C6.88735 72.3542 7.00738 72.4074 7.13406 72.4118Z" fill="#E6E6E6"/>
<path d="M28.3995 71.6223L28.6602 56.2909C28.6708 55.6641 27.6934 55.664 27.6827 56.2909L27.4221 71.6223C27.4114 72.2491 28.3889 72.2492 28.3995 71.6223Z" fill="#E6E6E6"/>
<path d="M48.546 71.7884L49.1812 52.5177L49.3627 47.0118C49.3833 46.385 48.4059 46.3858 48.3852 47.0118L47.75 66.2825L47.5686 71.7884C47.5479 72.4151 48.5254 72.4144 48.546 71.7884Z" fill="#E6E6E6"/>
<path d="M68.6381 37.8768C68.255 44.7023 67.546 64.8349 67.1629 71.6604C67.1278 72.2865 68.1053 72.2845 68.1403 71.6604C68.5235 64.8349 69.2324 44.7023 69.6155 37.8768C69.6507 37.2507 68.6731 37.2527 68.6381 37.8768Z" fill="#E6E6E6"/>
<path d="M88.6336 64.8115L88.5138 71.3719C88.5023 71.9987 89.4798 71.9988 89.4912 71.3719C89.6327 63.6236 89.9956 63.8761 90.0355 61.6893C90.047 61.0625 89.0696 61.0625 89.0581 61.6893C89.0581 61.6893 88.7751 57.0631 88.6336 64.8115Z" fill="#E6E6E6"/>
<path d="M108.219 47.5772L108.329 65.9827L108.361 71.253C108.365 71.3792 108.419 71.4987 108.51 71.5865C108.601 71.6742 108.723 71.7232 108.849 71.7232C108.976 71.7232 109.098 71.6742 109.189 71.5865C109.28 71.4987 109.334 71.3792 109.338 71.253L109.228 52.8475L109.196 47.5772C109.192 47.451 109.138 47.3314 109.047 47.2437C108.956 47.156 108.834 47.1069 108.707 47.1069C108.58 47.1069 108.459 47.156 108.367 47.2437C108.276 47.3314 108.223 47.451 108.219 47.5772Z" fill="#E6E6E6"/>
<path d="M7.21261 71.8641C6.40355 69.6493 8.22734 67.5191 10.1013 66.5619C12.3465 65.4152 14.9292 65.1552 17.1982 64.0497C20.5808 62.4016 23.0446 59.4437 25.237 56.4829C27.4935 53.4355 29.5581 50.1649 32.4254 47.6329C33.9363 46.2689 35.7207 45.2402 37.6607 44.6147C40.105 43.8548 42.6973 43.8027 45.223 44.1089C50.442 44.7417 55.2801 46.8891 60.3158 48.2539C65.0635 49.5406 70.2945 50.2642 74.9546 48.2633C77.3222 47.2466 79.2583 45.5416 81.3379 44.0661C83.3504 42.6232 85.6007 41.5418 87.9871 40.8709C92.665 39.5751 97.7737 39.9211 102.129 42.1117C106.132 44.0995 109.302 47.4322 111.079 51.5216C113.143 56.435 112.875 61.9257 112.2 67.0973C112.026 68.4341 111.818 69.7664 111.609 71.0981C111.512 71.7111 112.454 71.9751 112.551 71.3569C113.391 66.0241 114.228 60.5224 113.183 55.156C112.28 50.4702 109.693 46.2729 105.908 43.3496C102.106 40.4183 97.3803 38.9325 92.5784 39.159C90.062 39.2754 87.5848 39.8242 85.2561 40.7813C82.8388 41.7773 80.7919 43.2537 78.7127 44.8071C76.5749 46.4043 74.3713 47.7254 71.7172 48.2463C69.1428 48.7515 66.4647 48.5621 63.9016 48.0851C58.613 47.1007 53.6834 44.8443 48.4396 43.6881C43.5813 42.6169 38.3387 42.5099 33.9882 45.244C30.6417 47.3472 28.277 50.6123 26.0076 53.7651C23.7581 56.8902 21.4802 60.2321 18.1908 62.3669C16.1842 63.6692 13.9286 64.1497 11.6839 64.8821C9.43348 65.6163 7.27301 66.855 6.3554 69.1518C5.95993 70.0978 5.92954 71.156 6.27009 72.1229C6.4835 72.7071 7.42843 72.4549 7.21261 71.8641V71.8641Z" fill="#E6E6E6"/>
<path d="M28.0762 54.1711L28.074 54.1723L28.0785 54.1711H28.0762Z" fill="#E6E6E6"/>
<path d="M29.7699 53.2755C29.544 52.877 29.1837 52.5711 28.7528 52.4123C28.3219 52.2534 27.8485 52.2519 27.4166 52.4078C27.2019 52.4859 27.0051 52.6061 26.8378 52.7612C26.6705 52.9164 26.5362 53.1034 26.4427 53.3111C26.424 53.3553 26.4131 53.4017 26.3978 53.447C26.3766 53.4811 26.3511 53.5119 26.3322 53.5476C26.1296 53.9497 26.0741 54.4096 26.1753 54.8481C26.2765 55.2866 26.528 55.6762 26.8866 55.9498C27.2451 56.2234 27.6882 56.364 28.1395 56.3472C28.5909 56.3304 29.0222 56.1573 29.3592 55.8578C29.7134 55.5388 29.9474 55.1087 30.0221 54.6389C30.0968 54.1691 30.0078 53.6879 29.7699 53.2755ZM28.5458 54.1024C28.5498 54.127 28.5483 54.1495 28.5458 54.1024V54.1024ZM28.4214 53.8205C28.4166 53.815 28.4172 53.8156 28.4214 53.8205V53.8205ZM27.8729 54.0402C27.8656 54.029 27.8649 54.0271 27.8729 54.0402V54.0402ZM28.0029 54.15C28.0339 54.1605 28.0216 54.1583 28.0029 54.15V54.15ZM28.061 54.1776L28.0738 54.1717C28.0707 54.172 28.0675 54.1714 28.0647 54.1699L28.0651 54.1698L28.0752 54.1711L28.0771 54.1702L28.0712 54.1689C28.0763 54.1687 28.0769 54.1694 28.0772 54.1702C28.1353 54.1436 28.096 54.1564 28.0623 54.1668L28.06 54.1663C28.039 54.1556 28.0163 54.1484 27.993 54.1449C27.9909 54.1437 27.9883 54.1428 27.9865 54.1415C27.9678 54.1282 27.8732 54.0546 27.9609 54.1318C27.9418 54.115 27.923 54.0985 27.905 54.0804C27.8944 54.0695 27.8848 54.0578 27.8763 54.0453C27.8648 54.0256 27.8537 54.0058 27.8429 53.9857L27.8412 53.9749C27.8398 53.966 27.8387 53.9622 27.8375 53.9569C27.8381 53.9513 27.839 53.9453 27.8399 53.9395C27.8464 53.922 27.8506 53.9037 27.8523 53.8851L27.856 53.8803C27.8701 53.8608 27.8824 53.8381 27.8958 53.8178C27.8249 53.9249 27.9235 53.8059 27.9308 53.7909C27.9321 53.7883 27.9299 53.7897 27.9304 53.7879C27.9333 53.7863 27.9324 53.7874 27.9359 53.7854C27.9578 53.7725 27.9786 53.7582 28.0009 53.7459C28.0275 53.7312 28.1321 53.7016 28.0236 53.7325C28.0482 53.7255 28.0719 53.7166 28.0968 53.7102C28.1013 53.709 28.1378 53.7039 28.1575 53.7004C28.1747 53.6999 28.1915 53.6994 28.1933 53.6994C28.2014 53.6995 28.2095 53.7005 28.2176 53.7009C28.1996 53.7033 28.2794 53.7205 28.3031 53.7241C28.3065 53.7268 28.3082 53.7285 28.3129 53.7319C28.3329 53.7465 28.3573 53.7594 28.3784 53.773C28.2839 53.7122 28.3796 53.7779 28.3977 53.7958C28.4085 53.8066 28.4184 53.8181 28.4286 53.8294C28.4379 53.8402 28.4463 53.8517 28.4538 53.8638C28.4693 53.8921 28.4857 53.9207 28.502 53.9485L28.5066 53.9557C28.5065 53.9566 28.5064 53.9575 28.5064 53.9584C28.5149 54.0036 28.5274 54.0479 28.5438 54.0908C28.5446 54.0944 28.5453 54.0981 28.5457 54.1018C28.5472 54.1265 28.5493 54.1511 28.5493 54.176L28.5491 54.181C28.4738 54.1419 28.3903 54.1212 28.3054 54.1206C28.2206 54.12 28.1368 54.1395 28.061 54.1776H28.061Z" fill="#E6E6E6"/>
<path d="M28.0782 54.1704C28.0793 54.1708 28.0783 54.1707 28.078 54.1708L28.0782 54.1704Z" fill="#E6E6E6"/>
<path d="M28.078 54.1704L28.0801 54.1711L28.078 54.1704Z" fill="#E6E6E6"/>
<path d="M28.0789 54.1709L28.0765 54.1713C28.0795 54.1716 28.0784 54.1711 28.0789 54.1709Z" fill="#E6E6E6"/>
<path d="M28.0773 54.1702L28.0793 54.1712L28.0773 54.1702Z" fill="#E6E6E6"/>
<path d="M48.928 45.0833L48.9258 45.0844L48.9303 45.0833H48.928Z" fill="#E6E6E6"/>
<path d="M50.6217 44.1876C50.3958 43.7891 50.0354 43.4833 49.6046 43.3244C49.1737 43.1655 48.7003 43.164 48.2684 43.32C48.0537 43.398 47.8569 43.5182 47.6896 43.6733C47.5223 43.8285 47.388 44.0155 47.2945 44.2233C47.2758 44.2674 47.2649 44.3138 47.2496 44.3591C47.2284 44.3932 47.203 44.424 47.184 44.4597C46.9814 44.8618 46.9259 45.3217 47.0271 45.7602C47.1283 46.1987 47.3798 46.5883 47.7384 46.8619C48.0969 47.1356 48.54 47.2761 48.9913 47.2593C49.4427 47.2425 49.874 47.0694 50.211 46.7699C50.5652 46.4509 50.7991 46.0208 50.8739 45.551C50.9486 45.0812 50.8596 44.6 50.6217 44.1876ZM49.3976 45.0145C49.4016 45.0391 49.4001 45.0616 49.3976 45.0145V45.0145ZM49.2732 44.7326C49.2684 44.7271 49.269 44.7277 49.2732 44.7326V44.7326ZM48.7247 44.9523C48.7174 44.9411 48.7167 44.9392 48.7247 44.9523V44.9523ZM48.8547 45.0621C48.8857 45.0726 48.8734 45.0704 48.8547 45.0621V45.0621ZM48.9128 45.0897L48.9256 45.0838C48.9225 45.0841 48.9193 45.0835 48.9165 45.082L48.9169 45.0819L48.927 45.0832L48.9288 45.0823L48.923 45.081C48.9281 45.0808 48.9286 45.0815 48.929 45.0823C48.9871 45.0558 48.9478 45.0685 48.914 45.0789L48.9118 45.0784C48.8907 45.0677 48.8681 45.0605 48.8448 45.057C48.8426 45.0558 48.8401 45.0549 48.8383 45.0536C48.8196 45.0403 48.725 44.9667 48.8127 45.0439C48.7936 45.0271 48.7748 45.0106 48.7568 44.9925C48.7462 44.9816 48.7366 44.9699 48.7281 44.9574C48.7166 44.9377 48.7054 44.9179 48.6946 44.8978L48.693 44.887C48.6916 44.8781 48.6905 44.8744 48.6893 44.869C48.6899 44.8634 48.6908 44.8574 48.6916 44.8516C48.6982 44.8341 48.7024 44.8158 48.7041 44.7972L48.7078 44.7924C48.7219 44.7729 48.7342 44.7502 48.7476 44.7299C48.6767 44.837 48.7753 44.7181 48.7826 44.703C48.7839 44.7004 48.7817 44.7018 48.7822 44.7C48.7851 44.6984 48.7842 44.6995 48.7877 44.6975C48.8096 44.6846 48.8304 44.6703 48.8527 44.658C48.8793 44.6433 48.9838 44.6137 48.8754 44.6446C48.9 44.6376 48.9237 44.6288 48.9486 44.6223C48.9531 44.6211 48.9896 44.616 49.0093 44.6125C49.0265 44.6121 49.0433 44.6115 49.0451 44.6116C49.0532 44.6117 49.0613 44.6126 49.0694 44.613C49.0514 44.6154 49.1312 44.6326 49.1548 44.6362C49.1583 44.6389 49.16 44.6406 49.1647 44.644C49.1847 44.6586 49.2091 44.6715 49.2302 44.6851C49.1357 44.6243 49.2314 44.69 49.2495 44.7079C49.2603 44.7187 49.2702 44.7302 49.2804 44.7415C49.2897 44.7523 49.2981 44.7638 49.3056 44.7759C49.321 44.8042 49.3375 44.8328 49.3538 44.8606L49.3583 44.8678C49.3582 44.8687 49.3582 44.8696 49.3582 44.8705C49.3667 44.9157 49.3792 44.96 49.3956 45.0029C49.3964 45.0065 49.397 45.0102 49.3975 45.0139C49.399 45.0386 49.4011 45.0632 49.4011 45.0881L49.4009 45.0931C49.3256 45.054 49.2421 45.0333 49.1572 45.0327C49.0724 45.0321 48.9886 45.0517 48.9128 45.0897Z" fill="#E6E6E6"/>
<path d="M48.9307 45.0833L48.9283 45.0836C48.9313 45.0839 48.9302 45.0834 48.9307 45.0833Z" fill="#E6E6E6"/>
<path d="M48.929 45.0823L48.931 45.0833L48.929 45.0823Z" fill="#E6E6E6"/>
<path d="M48.93 45.0828C48.9311 45.0831 48.9301 45.0831 48.9298 45.0831L48.93 45.0828Z" fill="#E6E6E6"/>
<path d="M48.9297 45.0825L48.9318 45.0832L48.9297 45.0825Z" fill="#E6E6E6"/>
<path d="M69.1292 49.6262L69.1311 49.6272L69.1292 49.6262Z" fill="#E6E6E6"/>
<path d="M70.8219 35.1C70.596 34.7015 70.2356 34.3956 69.8048 34.2368C69.3739 34.0779 68.9005 34.0763 68.4686 34.2323C68.2539 34.3104 68.0571 34.4305 67.8898 34.5857C67.7225 34.7408 67.5882 34.9278 67.4947 35.1356C67.476 35.1798 67.4651 35.2262 67.4498 35.2714C67.4286 35.3056 67.4032 35.3364 67.3842 35.372C67.1816 35.7742 67.1261 36.2341 67.2273 36.6726C67.3285 37.111 67.58 37.5007 67.9386 37.7743C68.2971 38.0479 68.7402 38.1884 69.1915 38.1716C69.6429 38.1548 70.0742 37.9818 70.4112 37.6822C70.7654 37.3633 70.9993 36.9331 71.0741 36.4633C71.1488 35.9935 71.0598 35.5124 70.8219 35.1ZM69.5978 35.9268C69.6018 35.9514 69.6003 35.974 69.5978 35.9268V35.9268ZM69.4734 35.645C69.4686 35.6395 69.4692 35.6401 69.4734 35.645V35.645ZM68.9249 35.8647C68.9176 35.8534 68.9169 35.8515 68.9249 35.8647V35.8647ZM69.0549 35.9745C69.0859 35.985 69.0736 35.9828 69.0549 35.9745V35.9745ZM69.113 36.002L69.1258 35.9961C69.1227 35.9964 69.1195 35.9958 69.1167 35.9943L69.1171 35.9943L69.1271 35.9955L69.129 35.9947L69.1232 35.9933C69.1283 35.9932 69.1288 35.9938 69.1292 35.9946C69.1873 35.9681 69.148 35.9809 69.1142 35.9913L69.112 35.9907C69.0909 35.9801 69.0683 35.9729 69.045 35.9693C69.0428 35.9681 69.0403 35.9673 69.0385 35.966C69.0198 35.9527 68.9252 35.8791 69.0129 35.9563C68.9938 35.9395 68.975 35.923 68.957 35.9048C68.9464 35.894 68.9368 35.8823 68.9283 35.8697C68.9168 35.8501 68.9056 35.8302 68.8948 35.8102L68.8932 35.7994C68.8918 35.7904 68.8907 35.7867 68.8895 35.7813C68.8901 35.7757 68.891 35.7698 68.8918 35.764C68.8984 35.7465 68.9026 35.7282 68.9042 35.7095L68.908 35.7048C68.9221 35.6853 68.9344 35.6625 68.9478 35.6422C68.8769 35.7494 68.9755 35.6304 68.9828 35.6153C68.9841 35.6128 68.9819 35.6142 68.9824 35.6124C68.9853 35.6108 68.9844 35.6119 68.9879 35.6099C69.0098 35.597 69.0306 35.5826 69.0529 35.5703C69.0795 35.5557 69.184 35.5261 69.0756 35.557C69.1002 35.55 69.1239 35.5411 69.1488 35.5346C69.1533 35.5335 69.1898 35.5284 69.2095 35.5248C69.2267 35.5244 69.2435 35.5239 69.2453 35.5239C69.2534 35.524 69.2615 35.525 69.2696 35.5254C69.2516 35.5278 69.3314 35.5449 69.355 35.5486C69.3585 35.5512 69.3602 35.5529 69.3649 35.5563C69.3849 35.5709 69.4093 35.5839 69.4304 35.5975C69.3359 35.5366 69.4316 35.6023 69.4497 35.6203C69.4605 35.6311 69.4704 35.6425 69.4806 35.6538C69.4899 35.6646 69.4983 35.6761 69.5058 35.6882C69.5212 35.7165 69.5377 35.7452 69.554 35.773L69.5585 35.7801C69.5584 35.781 69.5584 35.782 69.5584 35.7829C69.5669 35.828 69.5794 35.8723 69.5958 35.9152C69.5966 35.9189 69.5972 35.9225 69.5977 35.9262C69.5992 35.951 69.6013 35.9756 69.6013 36.0005L69.6011 36.0055C69.5258 35.9664 69.4423 35.9457 69.3574 35.9451C69.2726 35.9445 69.1888 35.964 69.113 36.002Z" fill="#E6E6E6"/>
<path d="M69.1282 49.6272L69.126 49.6283L69.1305 49.6272H69.1282Z" fill="#E6E6E6"/>
<path d="M69.1299 49.6265L69.132 49.6271L69.1299 49.6265Z" fill="#E6E6E6"/>
<path d="M69.1309 49.6272L69.1285 49.6276C69.1315 49.6279 69.1304 49.6274 69.1309 49.6272Z" fill="#E6E6E6"/>
<path d="M69.1302 49.6267C69.1313 49.6271 69.1303 49.627 69.13 49.6271L69.1302 49.6267Z" fill="#E6E6E6"/>
<path d="M91.3479 60.0912C91.122 59.6927 90.7616 59.3868 90.3308 59.228C89.8999 59.0691 89.4265 59.0675 88.9946 59.2235C88.7799 59.3016 88.5831 59.4217 88.4158 59.5769C88.2485 59.7321 88.1142 59.919 88.0207 60.1268C88.002 60.171 87.9911 60.2174 87.9758 60.2627C87.9546 60.2968 87.9292 60.3276 87.9102 60.3632C87.7076 60.7654 87.6521 61.2253 87.7533 61.6638C87.8545 62.1023 88.106 62.4919 88.4646 62.7655C88.8231 63.0391 89.2662 63.1796 89.7175 63.1628C90.1689 63.146 90.6002 62.973 90.9372 62.6734C91.2914 62.3545 91.5253 61.9243 91.6001 61.4545C91.6748 60.9847 91.5858 60.5036 91.3479 60.0912ZM90.1238 60.918C90.1278 60.9426 90.1263 60.9652 90.1238 60.918V60.918ZM89.9994 60.6362C89.9946 60.6307 89.9952 60.6313 89.9994 60.6362V60.6362ZM89.4509 60.8559C89.4436 60.8446 89.4429 60.8427 89.4509 60.8559V60.8559ZM89.5809 60.9657C89.6119 60.9762 89.5996 60.974 89.5809 60.9657V60.9657ZM89.6389 60.9932L89.6518 60.9873C89.6487 60.9876 89.6455 60.987 89.6427 60.9856L89.6431 60.9855L89.6531 60.9867L89.655 60.9859L89.6492 60.9845C89.6543 60.9844 89.6548 60.9851 89.6552 60.9858C89.7133 60.9593 89.6739 60.9721 89.6402 60.9825L89.638 60.982C89.6169 60.9713 89.5943 60.9641 89.571 60.9605C89.5688 60.9593 89.5663 60.9585 89.5645 60.9572C89.5458 60.9439 89.4512 60.8703 89.5389 60.9475C89.5198 60.9307 89.501 60.9142 89.483 60.896C89.4724 60.8852 89.4628 60.8735 89.4543 60.8609C89.4428 60.8413 89.4316 60.8214 89.4208 60.8014L89.4192 60.7906C89.4178 60.7816 89.4167 60.7779 89.4155 60.7725C89.4161 60.767 89.417 60.761 89.4178 60.7552C89.4244 60.7377 89.4286 60.7194 89.4302 60.7008L89.434 60.696C89.4481 60.6765 89.4604 60.6537 89.4738 60.6334C89.4029 60.7406 89.5014 60.6216 89.5088 60.6065C89.5101 60.604 89.5079 60.6054 89.5084 60.6036C89.5113 60.602 89.5104 60.6031 89.5139 60.6011C89.5358 60.5882 89.5566 60.5738 89.5789 60.5615C89.6055 60.5469 89.71 60.5173 89.6016 60.5482C89.6262 60.5412 89.6499 60.5323 89.6748 60.5258C89.6793 60.5247 89.7158 60.5196 89.7355 60.516C89.7527 60.5156 89.7695 60.5151 89.7712 60.5151C89.7794 60.5152 89.7875 60.5162 89.7956 60.5166C89.7776 60.519 89.8574 60.5361 89.881 60.5398C89.8845 60.5424 89.8862 60.5442 89.8909 60.5475C89.9109 60.5621 89.9352 60.5751 89.9564 60.5887C89.8619 60.5278 89.9576 60.5935 89.9757 60.6115C89.9865 60.6223 89.9964 60.6337 90.0066 60.645C90.0159 60.6558 90.0243 60.6673 90.0318 60.6794C90.0472 60.7077 90.0637 60.7364 90.08 60.7642L90.0845 60.7713C90.0844 60.7723 90.0844 60.7732 90.0844 60.7741C90.0929 60.8192 90.1054 60.8635 90.1218 60.9064C90.1226 60.9101 90.1232 60.9137 90.1237 60.9174C90.1252 60.9422 90.1273 60.9668 90.1273 60.9917L90.1271 60.9967C90.0518 60.9576 89.9683 60.9369 89.8834 60.9363C89.7986 60.9357 89.7148 60.9552 89.6389 60.9932Z" fill="#E6E6E6"/>
<path d="M89.6541 39.5657L89.6519 39.5668L89.6564 39.5657H89.6541Z" fill="#E6E6E6"/>
<path d="M89.6559 39.5649L89.658 39.5656L89.6559 39.5649Z" fill="#E6E6E6"/>
<path d="M89.6568 39.5657L89.6544 39.566C89.6574 39.5664 89.6563 39.5658 89.6568 39.5657Z" fill="#E6E6E6"/>
<path d="M89.6562 39.5652C89.6573 39.5655 89.6562 39.5655 89.656 39.5656L89.6562 39.5652Z" fill="#E6E6E6"/>
<path d="M89.6552 39.5647L89.6571 39.5657L89.6552 39.5647Z" fill="#E6E6E6"/>
<path d="M108.879 46.0564L108.881 46.057L108.879 46.0564Z" fill="#E6E6E6"/>
<path d="M110.571 45.1615C110.345 44.763 109.984 44.4571 109.553 44.2983C109.123 44.1394 108.649 44.1378 108.217 44.2938C108.003 44.3719 107.806 44.4921 107.638 44.6472C107.471 44.8024 107.337 44.9894 107.243 45.1971C107.225 45.2413 107.214 45.2877 107.198 45.333C107.177 45.3671 107.152 45.3979 107.133 45.4336C106.93 45.8357 106.875 46.2956 106.976 46.7341C107.077 47.1726 107.329 47.5622 107.687 47.8358C108.046 48.1094 108.489 48.2499 108.94 48.2331C109.392 48.2164 109.823 48.0433 110.16 47.7438C110.514 47.4248 110.748 46.9947 110.823 46.5249C110.897 46.0551 110.808 45.5739 110.571 45.1615ZM109.346 45.9884C109.35 46.0129 109.349 46.0355 109.346 45.9884V45.9884ZM109.222 45.7065C109.217 45.701 109.218 45.7016 109.222 45.7065V45.7065ZM108.674 45.9262C108.666 45.9149 108.666 45.9131 108.674 45.9262V45.9262ZM108.804 46.036C108.835 46.0465 108.822 46.0443 108.804 46.036V46.036ZM108.862 46.0635L108.874 46.0577C108.871 46.058 108.868 46.0573 108.865 46.0559L108.866 46.0558L108.876 46.0571L108.878 46.0562L108.872 46.0549C108.877 46.0547 108.878 46.0554 108.878 46.0562C108.936 46.0296 108.897 46.0424 108.863 46.0528L108.861 46.0523C108.84 46.0416 108.817 46.0344 108.794 46.0309C108.791 46.0297 108.789 46.0288 108.787 46.0275C108.768 46.0142 108.674 45.9406 108.762 46.0178C108.742 46.001 108.724 45.9845 108.706 45.9664C108.695 45.9555 108.685 45.9438 108.677 45.9313C108.665 45.9116 108.654 45.8917 108.643 45.8717L108.642 45.8609C108.64 45.852 108.639 45.8482 108.638 45.8428C108.639 45.8373 108.64 45.8313 108.641 45.8255C108.647 45.808 108.651 45.7897 108.653 45.7711L108.657 45.7663C108.671 45.7468 108.683 45.724 108.696 45.7038C108.626 45.8109 108.724 45.6919 108.731 45.6769C108.733 45.6743 108.731 45.6757 108.731 45.6739C108.734 45.6723 108.733 45.6734 108.737 45.6714C108.758 45.6585 108.779 45.6442 108.802 45.6319C108.828 45.6172 108.933 45.5876 108.824 45.6185C108.849 45.6115 108.873 45.6026 108.897 45.5962C108.902 45.595 108.938 45.5899 108.958 45.5864C108.975 45.5859 108.992 45.5854 108.994 45.5854C109.002 45.5855 109.01 45.5865 109.018 45.5869C109 45.5893 109.08 45.6065 109.104 45.6101C109.107 45.6128 109.109 45.6145 109.114 45.6179C109.134 45.6324 109.158 45.6454 109.179 45.659C109.085 45.5982 109.18 45.6638 109.198 45.6818C109.209 45.6926 109.219 45.7041 109.229 45.7154C109.239 45.7261 109.247 45.7376 109.254 45.7498C109.27 45.7781 109.286 45.8067 109.303 45.8345L109.307 45.8417C109.307 45.8426 109.307 45.8435 109.307 45.8444C109.316 45.8896 109.328 45.9338 109.344 45.9768C109.345 45.9804 109.346 45.9841 109.346 45.9878C109.348 46.0125 109.35 46.0371 109.35 46.062L109.35 46.067C109.274 46.0279 109.191 46.0072 109.106 46.0066C109.021 46.006 108.937 46.0255 108.862 46.0635Z" fill="#E6E6E6"/>
<path d="M108.877 46.0571L108.875 46.0583L108.879 46.0571H108.877Z" fill="#E6E6E6"/>
<path d="M108.878 46.0562L108.88 46.0572L108.878 46.0562Z" fill="#E6E6E6"/>
<path d="M108.879 46.0564C108.88 46.0567 108.879 46.0567 108.879 46.0568L108.879 46.0564Z" fill="#E6E6E6"/>
<path d="M108.88 46.0569L108.877 46.0572C108.88 46.0576 108.879 46.0571 108.88 46.0569Z" fill="#E6E6E6"/>
<path d="M103.608 60.9312L88.4593 61.7699C88.3739 61.7747 88.2899 61.7466 88.2247 61.6915C88.1594 61.6364 88.1179 61.5585 88.1087 61.4738C88.0994 61.389 88.1231 61.304 88.1749 61.2362C88.2267 61.1684 88.3026 61.123 88.387 61.1093L103.871 58.5994L103.608 60.9312Z" fill="#3F3D56"/>
<path d="M122.861 94.5287L128.569 84.9612L132.789 86.9464C132.789 86.9464 125.518 95.9924 125.286 96.2527C125.386 96.6924 125.349 97.1517 125.18 97.5699C125.011 97.9881 124.719 98.3455 124.342 98.5948C123.966 98.844 123.522 98.9734 123.069 98.9659C122.617 98.9583 122.178 98.8141 121.809 98.5524C121.441 98.2907 121.161 97.9238 121.007 97.5002C120.852 97.0766 120.831 96.6163 120.945 96.1801C121.059 95.744 121.303 95.3526 121.645 95.0577C121.987 94.7628 122.411 94.5784 122.861 94.5287Z" fill="#FFB6B6"/>
<path d="M125.235 72.304L134.484 77.1109C135.062 77.5257 135.547 78.0561 135.907 78.6682C136.268 79.2802 136.496 79.9605 136.578 80.6655C136.659 81.3705 136.592 82.0847 136.381 82.7624C136.17 83.4401 135.819 84.0664 135.351 84.6014L128.975 91.8876L126.197 88.138L128.338 83.6785L124.193 82.5896L125.235 72.304Z" fill="#00ADB5"/>
<path d="M98.8784 61.0874L97.8366 72.169L93.1703 72.1767C93.1703 72.1767 95.8475 60.8995 95.9448 60.5655C95.666 60.2106 95.502 59.7797 95.4744 59.3299C95.4467 58.8801 95.5569 58.4325 95.7901 58.0464C96.0234 57.6603 96.3689 57.3538 96.7808 57.1675C97.1927 56.9813 97.6517 56.9239 98.0971 57.0032C98.5424 57.0824 98.9531 57.2945 99.2748 57.6113C99.5966 57.9281 99.8142 58.3347 99.8988 58.7774C99.9835 59.2201 99.9313 59.678 99.7491 60.0905C99.5669 60.5029 99.2632 60.8506 98.8784 61.0874V61.0874Z" fill="#FFB6B6"/>
<path d="M108.167 83.749L97.4267 81.7869C92.9041 81.2451 91.048 78.2807 91.8641 75.3893L94.4903 66.084L98.6131 68.2859L98.5973 73.229L104.368 72.4431L108.167 83.749Z" fill="#00ADB5"/>
<path d="M103.77 160.331H100.817L99.4125 148.984H103.771L103.77 160.331Z" fill="#FFB6B6"/>
<path d="M103.875 163.4L94.7932 163.4V163.286C94.7933 162.352 95.1657 161.456 95.8286 160.796C96.4915 160.135 97.3905 159.764 98.3279 159.764H98.3282L99.987 158.511L103.082 159.765L103.875 159.765L103.875 163.4Z" fill="#335052"/>
<path d="M124.666 160.331H127.619L129.024 148.984H124.666L124.666 160.331Z" fill="#FFB6B6"/>
<path d="M124.562 163.4L133.644 163.4V163.286C133.643 162.352 133.271 161.456 132.608 160.796C131.945 160.135 131.046 159.764 130.109 159.764H130.109L128.45 158.511L125.355 159.765L124.562 159.765L124.562 163.4Z" fill="#335052"/>
<path d="M99.2825 140.645C99.3261 139.998 99.6729 136.417 99.6729 136.417L100.504 128.823L101.968 108.693L103.272 103.402L109.732 105.909L114.973 103.406L121.203 105.389L126.054 107.201C126.054 107.201 126.062 107.977 126.1 108.914C126.149 110.141 126.237 111.645 126.444 112.036C126.791 112.727 126.704 116.436 126.704 116.436C126.704 116.436 127.048 123.982 127.483 124.81C127.917 125.637 128.004 127.36 127.873 127.706C127.742 128.051 128.307 137.114 128.307 137.114C128.307 137.114 129.757 153.152 128.847 155.57C127.938 157.988 124.501 156.404 124.501 156.404C124.501 156.404 124.667 155.759 123.67 155.454C122.673 155.15 119.637 132.41 119.637 132.41C119.637 132.41 119.072 127.747 118.553 126.411C118.034 125.075 117.556 121.32 117.556 121.32C117.556 121.32 114.35 115.106 114.309 113.724C114.309 113.724 113.889 112.431 113.493 113.854C113.096 115.277 111.927 118.687 111.927 118.687L110.787 122.873L109.445 129.129L108.577 134.396C108.577 134.396 107.277 141.386 107.07 141.688C106.862 141.99 107.07 148.376 107.07 148.376C107.07 148.376 106.065 153.814 104.644 154.764C103.224 155.713 99.4607 154.779 99.4607 154.779C99.4607 154.779 99.2389 141.293 99.2825 140.645Z" fill="#335052"/>
<path d="M104.111 86.3766L103.286 97.0281L102.046 98.3065C101.934 98.4218 101.847 98.5584 101.789 98.7081C101.732 98.8577 101.705 99.0174 101.711 99.1776C101.717 99.3378 101.755 99.4952 101.823 99.6403C101.892 99.7854 101.989 99.9153 102.108 100.022L101.425 101.189L101.183 104.867C101.114 105.153 101.11 105.45 101.17 105.739C101.229 106.027 101.352 106.298 101.53 106.534C101.707 106.769 101.935 106.962 102.196 107.1C102.457 107.238 102.745 107.316 103.04 107.33L124.424 108.331C124.717 108.344 125.01 108.294 125.282 108.182C125.553 108.071 125.797 107.902 125.996 107.686C126.194 107.471 126.343 107.214 126.431 106.935C126.52 106.656 126.545 106.361 126.507 106.071L124.688 92.4349V91.4153L123.874 89.4462L124.293 82.8497L125.266 72.3798L119.609 70.9242L116.542 68.822L111.214 68.9065L107.98 71.5518L103.669 72.2243L100.409 72.8699L99.9938 73.769L100.824 73.5892L103.835 85.2868L104.111 86.3766Z" fill="#00ADB5"/>
<path d="M113.759 67.3947C117.225 67.3947 120.036 64.5951 120.036 61.1417C120.036 57.6882 117.225 54.8887 113.759 54.8887C110.292 54.8887 107.482 57.6882 107.482 61.1417C107.482 64.5951 110.292 67.3947 113.759 67.3947Z" fill="#FFB6B6"/>
<path d="M112.245 66.9912L116.78 66.7608C117.362 66.7312 117.996 66.6801 118.418 66.2817C118.646 66.0357 118.821 65.7463 118.933 65.431C119.352 64.4608 119.771 63.4906 120.18 62.5159C120.745 61.1677 121.3 59.7442 121.156 58.2903C121.122 57.6263 120.842 56.9983 120.371 56.5276C120.13 56.3008 119.821 56.1597 119.492 56.1264C119.162 56.0932 118.831 56.1696 118.55 56.3437C118.48 55.8839 118.306 55.4458 118.041 55.0628C117.776 54.6797 117.427 54.3617 117.021 54.1327C116.2 53.681 115.263 53.4831 114.329 53.5641C112.974 53.6512 111.68 54.1592 110.629 55.0168C110.334 55.2884 110.018 55.5374 109.685 55.7619C109.518 55.8735 109.329 55.9498 109.131 55.9863C108.933 56.0228 108.73 56.0187 108.533 55.9743C108.339 55.9225 108.169 55.8023 108.057 55.6358C107.944 55.4694 107.896 55.2681 107.921 55.069C107.602 55.3069 107.383 55.6548 107.307 56.0448C107.231 56.4349 107.304 56.8391 107.511 57.1786C107.275 57.2768 107.018 57.3128 106.765 57.2829C106.511 57.253 106.27 57.1584 106.064 57.0081C105.844 57.1172 105.648 57.2709 105.491 57.4595C105.333 57.6481 105.217 57.8673 105.149 58.1033C105.082 58.3392 105.065 58.5866 105.099 58.8295C105.133 59.0725 105.217 59.3057 105.347 59.5143C105.477 59.7228 105.649 59.9021 105.852 60.0406C106.055 60.1791 106.285 60.2738 106.527 60.3186C106.769 60.3634 107.018 60.3573 107.258 60.3008C107.497 60.2443 107.723 60.1385 107.919 59.9903C108.194 60.3743 108.092 60.8962 108.056 61.3668C108.02 61.8373 108.147 62.4221 108.602 62.5521C109.218 62.7279 109.716 61.9022 110.356 61.911C110.514 61.9238 110.667 61.9753 110.8 62.0608C110.933 62.1463 111.043 62.2632 111.12 62.4012C111.271 62.6785 111.374 62.979 111.426 63.2902L112.245 66.9656" fill="#335052"/>
<path d="M289.076 123.216C289.076 122.247 288.75 121.462 288.349 121.46H179.091C178.688 121.462 178.364 122.247 178.362 123.216V163.075C178.362 163.165 178.328 163.252 178.268 163.318C178.207 163.385 178.124 163.426 178.034 163.435C177.74 163.463 177.447 163.489 177.154 163.513C177.147 163.513 177.139 163.515 177.132 163.515C176.973 163.53 176.813 163.541 176.653 163.553H176.652C176.57 163.402 176.488 163.25 176.408 163.096C176.381 163.044 176.367 162.986 176.367 162.928V120.938C176.367 120.67 176.378 120.401 176.396 120.136C176.422 119.771 176.467 119.408 176.532 119.048C176.838 117.37 177.531 116.234 178.318 116.23H289.12C289.235 116.231 289.348 116.255 289.453 116.3C289.608 116.369 289.748 116.466 289.865 116.588C290.024 116.752 290.16 116.938 290.27 117.139C290.721 118.035 290.981 119.015 291.033 120.016C291.033 120.027 291.035 120.038 291.035 120.049C291.06 120.342 291.073 120.64 291.071 120.938L291.096 124.809L291.113 127.118L291.162 134.362L291.18 136.934L291.26 163.345C291.26 163.441 291.221 163.533 291.153 163.601C291.085 163.669 290.993 163.707 290.897 163.707H289.439C289.343 163.707 289.251 163.669 289.183 163.601C289.115 163.533 289.076 163.441 289.076 163.345V123.216Z" fill="#E6E6E6"/>
<path d="M259.387 98.1152H247.615C247.448 98.1155 247.288 98.1816 247.171 98.2991C247.053 98.4166 246.987 98.5757 246.987 98.7416V117.268H260.016V98.7416C260.016 98.6594 260 98.5779 259.968 98.5019C259.937 98.4259 259.891 98.3568 259.832 98.2986C259.774 98.2404 259.704 98.1943 259.628 98.1628C259.552 98.1314 259.47 98.1152 259.387 98.1152ZM253.541 108.642C253.172 108.64 252.82 108.494 252.56 108.234C252.299 107.975 252.152 107.624 252.15 107.257V105.12C252.15 104.753 252.297 104.4 252.558 104.141C252.818 103.881 253.172 103.735 253.541 103.735C253.909 103.735 254.263 103.881 254.524 104.141C254.784 104.4 254.931 104.753 254.931 105.12V107.257C254.929 107.624 254.782 107.975 254.522 108.234C254.261 108.494 253.909 108.64 253.541 108.642Z" fill="#CCCCCC"/>
<path d="M246.947 116.675V118.463C246.947 118.555 246.984 118.644 247.05 118.71C247.116 118.775 247.205 118.812 247.298 118.812H259.706C259.799 118.812 259.888 118.775 259.953 118.709C260.019 118.644 260.056 118.555 260.057 118.463V116.675H246.947Z" fill="#3F3D56"/>
<path d="M278.882 69.2026H228.558C228.126 69.2033 227.711 69.3747 227.405 69.6793C227.1 69.9838 226.928 70.3967 226.927 70.8274V104.656C226.927 105.087 227.099 105.5 227.405 105.805C227.711 106.109 228.126 106.281 228.558 106.281H278.882C279.315 106.281 279.729 106.109 280.035 105.805C280.341 105.5 280.513 105.087 280.513 104.656V70.8274C280.512 70.3967 280.34 69.9838 280.035 69.6793C279.729 69.3747 279.314 69.2033 278.882 69.2026Z" fill="#E6E6E6"/>
<path d="M278.462 70.3762H228.978C228.747 70.3767 228.525 70.4687 228.362 70.6319C228.198 70.7952 228.106 71.0163 228.106 71.247V104.237C228.107 104.468 228.199 104.689 228.362 104.851C228.526 105.014 228.747 105.106 228.978 105.106H278.462C278.693 105.106 278.915 105.014 279.078 104.851C279.242 104.689 279.334 104.468 279.334 104.237V71.247C279.334 71.0163 279.242 70.7952 279.079 70.6319C278.915 70.4687 278.693 70.3767 278.462 70.3762Z" fill="white"/>
<path d="M268.823 119.434H239.383C239.303 119.434 239.223 119.416 239.15 119.382C239.078 119.347 239.014 119.297 238.963 119.235C238.912 119.172 238.876 119.099 238.857 119.021C238.838 118.943 238.837 118.862 238.853 118.783L239.31 116.622C239.336 116.501 239.403 116.393 239.499 116.315C239.596 116.237 239.716 116.194 239.84 116.194H268.367C268.491 116.194 268.611 116.237 268.707 116.315C268.804 116.393 268.871 116.501 268.897 116.622L269.353 118.783C269.37 118.862 269.369 118.943 269.35 119.021C269.331 119.099 269.295 119.172 269.244 119.235C269.193 119.297 269.129 119.347 269.056 119.382C268.984 119.416 268.904 119.434 268.823 119.434Z" fill="#CCCCCC"/>
<path d="M240.797 116.583H240.208C240.12 116.583 240.049 116.654 240.049 116.741V116.967C240.049 117.054 240.12 117.125 240.208 117.125H240.797C240.885 117.125 240.956 117.054 240.956 116.967V116.741C240.956 116.654 240.885 116.583 240.797 116.583Z" fill="#E6E6E6"/>
<path d="M242.61 116.583H242.022C241.934 116.583 241.863 116.654 241.863 116.741V116.967C241.863 117.054 241.934 117.125 242.022 117.125H242.61C242.698 117.125 242.769 117.054 242.769 116.967V116.741C242.769 116.654 242.698 116.583 242.61 116.583Z" fill="#E6E6E6"/>
<path d="M244.424 116.583H243.835C243.747 116.583 243.676 116.654 243.676 116.741V116.967C243.676 117.054 243.747 117.125 243.835 117.125H244.424C244.512 117.125 244.583 117.054 244.583 116.967V116.741C244.583 116.654 244.512 116.583 244.424 116.583Z" fill="#E6E6E6"/>
<path d="M246.237 116.583H245.649C245.561 116.583 245.49 116.654 245.49 116.741V116.967C245.49 117.054 245.561 117.125 245.649 117.125H246.237C246.325 117.125 246.396 117.054 246.396 116.967V116.741C246.396 116.654 246.325 116.583 246.237 116.583Z" fill="#E6E6E6"/>
<path d="M248.051 116.583H247.462C247.374 116.583 247.303 116.654 247.303 116.741V116.967C247.303 117.054 247.374 117.125 247.462 117.125H248.051C248.139 117.125 248.21 117.054 248.21 116.967V116.741C248.21 116.654 248.139 116.583 248.051 116.583Z" fill="#E6E6E6"/>
<path d="M249.864 116.583H249.276C249.188 116.583 249.116 116.654 249.116 116.741V116.967C249.116 117.054 249.188 117.125 249.276 117.125H249.864C249.952 117.125 250.023 117.054 250.023 116.967V116.741C250.023 116.654 249.952 116.583 249.864 116.583Z" fill="#E6E6E6"/>
<path d="M251.678 116.583H251.089C251.001 116.583 250.93 116.654 250.93 116.741V116.967C250.93 117.054 251.001 117.125 251.089 117.125H251.678C251.765 117.125 251.837 117.054 251.837 116.967V116.741C251.837 116.654 251.765 116.583 251.678 116.583Z" fill="#E6E6E6"/>
<path d="M253.491 116.583H252.902C252.814 116.583 252.743 116.654 252.743 116.741V116.967C252.743 117.054 252.814 117.125 252.902 117.125H253.491C253.579 117.125 253.65 117.054 253.65 116.967V116.741C253.65 116.654 253.579 116.583 253.491 116.583Z" fill="#E6E6E6"/>
<path d="M255.304 116.583H254.716C254.628 116.583 254.557 116.654 254.557 116.741V116.967C254.557 117.054 254.628 117.125 254.716 117.125H255.304C255.392 117.125 255.463 117.054 255.463 116.967V116.741C255.463 116.654 255.392 116.583 255.304 116.583Z" fill="#E6E6E6"/>
<path d="M257.118 116.583H256.529C256.441 116.583 256.37 116.654 256.37 116.741V116.967C256.37 117.054 256.441 117.125 256.529 117.125H257.118C257.206 117.125 257.277 117.054 257.277 116.967V116.741C257.277 116.654 257.206 116.583 257.118 116.583Z" fill="#E6E6E6"/>
<path d="M258.931 116.583H258.343C258.255 116.583 258.184 116.654 258.184 116.741V116.967C258.184 117.054 258.255 117.125 258.343 117.125H258.931C259.019 117.125 259.09 117.054 259.09 116.967V116.741C259.09 116.654 259.019 116.583 258.931 116.583Z" fill="#E6E6E6"/>
<path d="M260.745 116.583H260.156C260.068 116.583 259.997 116.654 259.997 116.741V116.967C259.997 117.054 260.068 117.125 260.156 117.125H260.745C260.833 117.125 260.904 117.054 260.904 116.967V116.741C260.904 116.654 260.833 116.583 260.745 116.583Z" fill="#E6E6E6"/>
<path d="M262.558 116.583H261.97C261.882 116.583 261.811 116.654 261.811 116.741V116.967C261.811 117.054 261.882 117.125 261.97 117.125H262.558C262.646 117.125 262.717 117.054 262.717 116.967V116.741C262.717 116.654 262.646 116.583 262.558 116.583Z" fill="#E6E6E6"/>
<path d="M264.372 116.583H263.783C263.695 116.583 263.624 116.654 263.624 116.741V116.967C263.624 117.054 263.695 117.125 263.783 117.125H264.372C264.46 117.125 264.531 117.054 264.531 116.967V116.741C264.531 116.654 264.46 116.583 264.372 116.583Z" fill="#E6E6E6"/>
<path d="M266.185 116.583H265.597C265.509 116.583 265.438 116.654 265.438 116.741V116.967C265.438 117.054 265.509 117.125 265.597 117.125H266.185C266.273 117.125 266.344 117.054 266.344 116.967V116.741C266.344 116.654 266.273 116.583 266.185 116.583Z" fill="#E6E6E6"/>
<path d="M267.999 116.583H267.41C267.322 116.583 267.251 116.654 267.251 116.741V116.967C267.251 117.054 267.322 117.125 267.41 117.125H267.999C268.086 117.125 268.158 117.054 268.158 116.967V116.741C268.158 116.654 268.086 116.583 267.999 116.583Z" fill="#E6E6E6"/>
<path d="M240.775 117.486H240.187C240.099 117.486 240.028 117.557 240.028 117.645V117.87C240.028 117.957 240.099 118.028 240.187 118.028H240.775C240.863 118.028 240.934 117.957 240.934 117.87V117.645C240.934 117.557 240.863 117.486 240.775 117.486Z" fill="#E6E6E6"/>
<path d="M242.589 117.486H242C241.912 117.486 241.841 117.557 241.841 117.645V117.87C241.841 117.957 241.912 118.028 242 118.028H242.589C242.677 118.028 242.748 117.957 242.748 117.87V117.645C242.748 117.557 242.677 117.486 242.589 117.486Z" fill="#E6E6E6"/>
<path d="M244.402 117.486H243.814C243.726 117.486 243.655 117.557 243.655 117.645V117.87C243.655 117.957 243.726 118.028 243.814 118.028H244.402C244.49 118.028 244.561 117.957 244.561 117.87V117.645C244.561 117.557 244.49 117.486 244.402 117.486Z" fill="#E6E6E6"/>
<path d="M246.216 117.486H245.627C245.539 117.486 245.468 117.557 245.468 117.645V117.87C245.468 117.957 245.539 118.028 245.627 118.028H246.216C246.304 118.028 246.375 117.957 246.375 117.87V117.645C246.375 117.557 246.304 117.486 246.216 117.486Z" fill="#E6E6E6"/>
<path d="M248.029 117.486H247.441C247.353 117.486 247.281 117.557 247.281 117.645V117.87C247.281 117.957 247.353 118.028 247.441 118.028H248.029C248.117 118.028 248.188 117.957 248.188 117.87V117.645C248.188 117.557 248.117 117.486 248.029 117.486Z" fill="#E6E6E6"/>
<path d="M249.843 117.486H249.254C249.166 117.486 249.095 117.557 249.095 117.645V117.87C249.095 117.957 249.166 118.028 249.254 118.028H249.843C249.93 118.028 250.002 117.957 250.002 117.87V117.645C250.002 117.557 249.93 117.486 249.843 117.486Z" fill="#E6E6E6"/>
<path d="M251.656 117.486H251.068C250.98 117.486 250.908 117.557 250.908 117.645V117.87C250.908 117.957 250.98 118.028 251.068 118.028H251.656C251.744 118.028 251.815 117.957 251.815 117.87V117.645C251.815 117.557 251.744 117.486 251.656 117.486Z" fill="#E6E6E6"/>
<path d="M253.47 117.486H252.881C252.793 117.486 252.722 117.557 252.722 117.645V117.87C252.722 117.957 252.793 118.028 252.881 118.028H253.47C253.557 118.028 253.629 117.957 253.629 117.87V117.645C253.629 117.557 253.557 117.486 253.47 117.486Z" fill="#E6E6E6"/>
<path d="M255.283 117.486H254.694C254.607 117.486 254.535 117.557 254.535 117.645V117.87C254.535 117.957 254.607 118.028 254.694 118.028H255.283C255.371 118.028 255.442 117.957 255.442 117.87V117.645C255.442 117.557 255.371 117.486 255.283 117.486Z" fill="#E6E6E6"/>
<path d="M257.096 117.486H256.508C256.42 117.486 256.349 117.557 256.349 117.645V117.87C256.349 117.957 256.42 118.028 256.508 118.028H257.096C257.184 118.028 257.255 117.957 257.255 117.87V117.645C257.255 117.557 257.184 117.486 257.096 117.486Z" fill="#E6E6E6"/>
<path d="M258.91 117.486H258.321C258.233 117.486 258.162 117.557 258.162 117.645V117.87C258.162 117.957 258.233 118.028 258.321 118.028H258.91C258.998 118.028 259.069 117.957 259.069 117.87V117.645C259.069 117.557 258.998 117.486 258.91 117.486Z" fill="#E6E6E6"/>
<path d="M260.723 117.486H260.135C260.047 117.486 259.976 117.557 259.976 117.645V117.87C259.976 117.957 260.047 118.028 260.135 118.028H260.723C260.811 118.028 260.882 117.957 260.882 117.87V117.645C260.882 117.557 260.811 117.486 260.723 117.486Z" fill="#E6E6E6"/>
<path d="M262.537 117.486H261.948C261.86 117.486 261.789 117.557 261.789 117.645V117.87C261.789 117.957 261.86 118.028 261.948 118.028H262.537C262.625 118.028 262.696 117.957 262.696 117.87V117.645C262.696 117.557 262.625 117.486 262.537 117.486Z" fill="#E6E6E6"/>
<path d="M264.35 117.486H263.762C263.674 117.486 263.603 117.557 263.603 117.645V117.87C263.603 117.957 263.674 118.028 263.762 118.028H264.35C264.438 118.028 264.509 117.957 264.509 117.87V117.645C264.509 117.557 264.438 117.486 264.35 117.486Z" fill="#E6E6E6"/>
<path d="M266.164 117.486H265.575C265.487 117.486 265.416 117.557 265.416 117.645V117.87C265.416 117.957 265.487 118.028 265.575 118.028H266.164C266.252 118.028 266.323 117.957 266.323 117.87V117.645C266.323 117.557 266.252 117.486 266.164 117.486Z" fill="#E6E6E6"/>
<path d="M267.977 117.486H267.389C267.301 117.486 267.229 117.557 267.229 117.645V117.87C267.229 117.957 267.301 118.028 267.389 118.028H267.977C268.065 118.028 268.136 117.957 268.136 117.87V117.645C268.136 117.557 268.065 117.486 267.977 117.486Z" fill="#E6E6E6"/>
<path d="M255.827 118.57H248.891C248.804 118.57 248.732 118.641 248.732 118.729V118.954C248.732 119.041 248.804 119.112 248.891 119.112H255.827C255.915 119.112 255.986 119.041 255.986 118.954V118.729C255.986 118.641 255.915 118.57 255.827 118.57Z" fill="#E6E6E6"/>
<path d="M275.975 74.9215H229.673C229.625 74.9205 229.579 74.9007 229.545 74.8664C229.512 74.8321 229.493 74.7861 229.493 74.7381C229.493 74.6902 229.512 74.6441 229.545 74.6098C229.579 74.5755 229.625 74.5558 229.673 74.5547H275.975C276.023 74.5558 276.068 74.5755 276.102 74.6098C276.136 74.6441 276.155 74.6902 276.155 74.7381C276.155 74.7861 276.136 74.8321 276.102 74.8664C276.068 74.9007 276.023 74.9205 275.975 74.9215Z" fill="#CACACA"/>
<path d="M232.825 73.6182C233.421 73.6182 233.904 73.1262 233.904 72.5193C233.904 71.9124 233.421 71.4204 232.825 71.4204C232.229 71.4204 231.746 71.9124 231.746 72.5193C231.746 73.1262 232.229 73.6182 232.825 73.6182Z" fill="#CCCCCC"/>
<path d="M236.552 73.6182C237.148 73.6182 237.632 73.1262 237.632 72.5193C237.632 71.9124 237.148 71.4204 236.552 71.4204C235.957 71.4204 235.473 71.9124 235.473 72.5193C235.473 73.1262 235.957 73.6182 236.552 73.6182Z" fill="#CCCCCC"/>
<path d="M240.28 73.6182C240.876 73.6182 241.359 73.1262 241.359 72.5193C241.359 71.9124 240.876 71.4204 240.28 71.4204C239.684 71.4204 239.201 71.9124 239.201 72.5193C239.201 73.1262 239.684 73.6182 240.28 73.6182Z" fill="#CCCCCC"/>
<path d="M273.73 71.6929H271.082C271.03 71.6939 270.98 71.7154 270.943 71.7527C270.906 71.7901 270.885 71.8403 270.885 71.8926C270.885 71.9449 270.906 71.9951 270.943 72.0325C270.98 72.0698 271.03 72.0913 271.082 72.0923H273.73C273.783 72.0913 273.833 72.0698 273.869 72.0325C273.906 71.9951 273.927 71.9449 273.927 71.8926C273.927 71.8403 273.906 71.7901 273.869 71.7527C273.833 71.7154 273.783 71.6939 273.73 71.6929H273.73Z" fill="#CCCCCC"/>
<path d="M273.73 72.4426H271.082C271.03 72.4437 270.98 72.4652 270.943 72.5025C270.906 72.5399 270.886 72.5901 270.886 72.6424C270.886 72.6946 270.906 72.7448 270.943 72.7822C270.98 72.8195 271.03 72.841 271.082 72.8421H273.73C273.783 72.841 273.833 72.8195 273.869 72.7822C273.906 72.7448 273.927 72.6946 273.927 72.6424C273.927 72.5901 273.906 72.5399 273.869 72.5025C273.833 72.4652 273.783 72.4437 273.73 72.4426H273.73Z" fill="#CCCCCC"/>
<path d="M273.73 73.1912H271.082C271.03 73.1922 270.98 73.2137 270.943 73.251C270.906 73.2884 270.885 73.3386 270.885 73.3909C270.885 73.4432 270.906 73.4934 270.943 73.5307C270.98 73.5681 271.03 73.5896 271.082 73.5906H273.73C273.783 73.5896 273.833 73.5681 273.869 73.5307C273.906 73.4934 273.927 73.4432 273.927 73.3909C273.927 73.3386 273.906 73.2884 273.869 73.251C273.833 73.2137 273.783 73.1922 273.73 73.1912H273.73Z" fill="#CCCCCC"/>
<path d="M256.562 84.9148H250.776C250.342 84.9148 249.99 85.2657 249.99 85.6986C249.99 86.1315 250.342 86.4825 250.776 86.4825H256.562C256.997 86.4825 257.349 86.1315 257.349 85.6986C257.349 85.2657 256.997 84.9148 256.562 84.9148Z" fill="#00ADB5"/>
<path d="M260.3 88.0503H247.039C246.604 88.0503 246.252 88.4012 246.252 88.8341C246.252 89.267 246.604 89.618 247.039 89.618H260.3C260.734 89.618 261.086 89.267 261.086 88.8341C261.086 88.4012 260.734 88.0503 260.3 88.0503Z" fill="#E6E6E6"/>
<path d="M260.3 91.1855H247.039C246.604 91.1855 246.252 91.5365 246.252 91.9694C246.252 92.4023 246.604 92.7532 247.039 92.7532H260.3C260.734 92.7532 261.086 92.4023 261.086 91.9694C261.086 91.5365 260.734 91.1855 260.3 91.1855Z" fill="#E6E6E6"/>
<path d="M170.96 140.031L168.293 138.76L171.957 127.655L175.893 129.53L170.96 140.031Z" fill="#FFB6B6"/>
<path d="M188.842 138.241C188.648 138.362 188.454 138.481 188.258 138.6C187.868 138.838 187.474 139.072 187.08 139.303C186.882 139.418 186.683 139.533 186.485 139.646V139.652L186.473 139.654L186.469 139.656L186.167 139.73L185.734 138.59L185.535 138.065L185.252 137.322L184.735 135.961L182.012 128.799L186.246 127.759L186.404 128.405H186.406L186.485 128.725L187.964 134.701L188.266 135.922L188.275 135.96L188.458 136.689L188.614 137.322L188.789 138.028L188.842 138.241Z" fill="#FFB6B6"/>
<path d="M214.097 113.088C213.829 113.517 213.554 113.945 213.278 114.368C212.765 115.157 212.238 115.933 211.697 116.699C211.697 116.7 211.695 116.7 211.693 116.702C211.378 116.994 211.029 117.247 210.655 117.458C210.639 117.469 210.622 117.477 210.606 117.487C210.33 117.639 210.037 117.756 209.732 117.836C209.622 117.864 209.511 117.891 209.401 117.918C209.005 118.012 208.614 118.092 208.224 118.162C207.53 118.285 206.844 118.373 206.163 118.428C206.108 118.434 206.053 118.437 205.998 118.441C203.195 118.646 200.466 118.316 197.617 117.776C196.21 117.51 194.774 117.192 193.287 116.862C192.801 116.753 192.314 116.646 191.82 116.538C191.783 116.531 191.744 116.521 191.704 116.513C190.999 116.359 190.282 116.207 189.547 116.056C188.623 115.867 187.669 115.684 186.677 115.51L186.748 116.901C186.806 117.972 187.03 119.027 187.41 120.03C187.833 121.263 188.168 122.239 187.461 124.271L187.12 125.254C187.297 125.743 187.357 126.265 187.297 126.781C187.237 127.297 187.058 127.792 186.773 128.227L186.705 128.33L189.547 135.495L189.732 135.959H188.276L186.485 135.961H183.451L179.072 127.21L178.862 126.792V126.771L179.315 109.954C179.321 109.805 179.332 109.655 179.352 109.507C179.432 108.833 179.646 108.181 179.981 107.59C180.316 106.999 180.767 106.48 181.305 106.064C181.822 105.662 182.413 105.367 183.045 105.194C183.677 105.022 184.337 104.977 184.987 105.061L186.485 105.254L189.547 105.648L191.704 105.928L191.747 105.933L198.109 106.753L198.565 104.899L198.649 104.868L201.328 103.89L210.59 100.508L210.614 100.5L211.223 100.278L211.296 100.395C211.317 100.43 211.339 100.465 211.358 100.5C211.96 101.576 212.451 102.709 212.822 103.884C213.445 105.803 213.959 107.756 214.36 109.733C214.377 109.819 214.393 109.897 214.407 109.967L214.412 109.989C214.418 110.022 214.422 110.043 214.424 110.049C214.608 111.073 214.494 112.127 214.097 113.088Z" fill="#335052"/>
<path d="M214.488 106.89C214.458 106.765 214.421 106.639 214.382 106.516C214.071 105.584 213.709 104.671 213.297 103.779C212.834 102.765 212.28 101.678 211.62 100.501C211.3 99.9308 210.957 99.3382 210.589 98.7228C210.405 98.4144 210.214 98.1002 210.015 97.7802C210.007 97.7654 209.999 97.7511 209.99 97.7372L209.933 97.6436L200.768 98.8653L197.355 99.32L197.152 101.014L197.103 101.434C197.101 101.434 197.101 101.434 197.103 101.436L196.966 102.579V102.581L196.783 104.092L196.768 104.09L191.703 103.436L186.484 102.763L183.681 102.402C183.031 102.317 182.371 102.363 181.739 102.535C181.107 102.707 180.516 103.003 180 103.405C179.461 103.821 179.011 104.339 178.676 104.93C178.34 105.522 178.126 106.173 178.046 106.847C178.029 106.984 178.017 107.125 178.011 107.263L175.366 113.506C173.784 117.24 172.776 121.19 172.377 125.224L170.437 131.401L170.713 131.426L174.824 131.807L175.909 131.908L178.299 128.432C178.571 128.036 178.83 127.628 179.071 127.211C179.468 126.529 179.82 125.822 180.127 125.095L185.297 112.839C185.697 112.907 186.092 112.972 186.484 113.034C188.296 113.327 190.036 113.566 191.703 113.75C197.124 114.353 201.818 114.4 205.997 113.889C207.171 113.746 208.305 113.559 209.4 113.327C209.802 113.243 210.198 113.152 210.589 113.056C210.681 113.034 210.771 113.013 210.862 112.989C211.671 112.781 212.416 112.374 213.027 111.805C213.637 111.237 214.095 110.525 214.359 109.734C214.673 108.818 214.718 107.831 214.488 106.89Z" fill="#335052"/>
<path d="M171.812 138.218L168.927 136.84L168.474 136.623L167.751 138.391L162.705 139.498C162.455 139.553 162.229 139.685 162.061 139.876C161.892 140.068 161.79 140.308 161.768 140.561C161.746 140.815 161.806 141.069 161.939 141.286C162.073 141.503 162.272 141.672 162.509 141.768L167.44 143.772L169.005 142.369L168.621 144.252L170.478 145.007L172.514 138.553L171.812 138.218Z" fill="#335052"/>
<path d="M189.547 135.495L189.732 135.959H189.547V135.495Z" fill="#335052"/>
<path d="M188.542 136.058L185.518 137.102L185.044 137.265L185.779 139.028L182.975 143.352C182.836 143.566 182.769 143.818 182.785 144.072C182.8 144.326 182.896 144.568 183.06 144.764C183.223 144.959 183.445 145.098 183.693 145.159C183.942 145.219 184.203 145.2 184.439 145.102L189.358 143.07L189.479 140.976L190.537 142.583L192.39 141.818L189.278 135.805L188.542 136.058Z" fill="#335052"/>
<path d="M170.19 71.4845C170.333 71.7627 170.536 72.0063 170.784 72.198C171.032 72.3897 171.319 72.5248 171.625 72.594C171.932 72.6631 172.249 72.6646 172.556 72.5982C172.863 72.5318 173.151 72.3992 173.401 72.2097L179.76 76.4145L179.772 72.4638L173.732 69.0765C173.384 68.6795 172.903 68.4233 172.379 68.3563C171.854 68.2894 171.324 68.4163 170.887 68.7131C170.45 69.0099 170.138 69.456 170.01 69.9668C169.881 70.4775 169.945 71.0175 170.19 71.4844V71.4845Z" fill="#FFB6B6"/>
<path d="M174.94 73.3105L177.906 69.9485L189.985 77.0919L205.998 75.6312C206.789 75.559 207.587 75.6613 208.334 75.9307C209.081 76.2002 209.76 76.6303 210.322 77.1904C210.883 77.7505 211.315 78.427 211.584 79.1717C211.854 79.9164 211.956 80.7112 211.883 81.4996C211.749 82.9234 211.053 84.2362 209.949 85.1499C208.845 86.0635 207.422 86.5035 205.992 86.3732L187.959 84.7105L174.94 73.3105Z" fill="#CCCCCC"/>
<path d="M212.104 73.3624L212.076 73.3276C209.823 73.1062 207.555 73.5404 205.545 74.5778C203.535 75.6151 201.871 77.211 200.753 79.1718L199.394 81.5564C194.999 86.9095 198.193 90.6011 198.384 91.15L196.858 98.1578L197.2 100.503L197.371 101.2L214.787 110.265C215.779 105.519 214.82 101.475 211.207 98.3857L214.703 87.5524C215.477 85.1571 215.646 82.608 215.192 80.1322C214.739 77.6564 213.678 75.3308 212.104 73.3624Z" fill="#CCCCCC"/>
<path d="M198.256 125.993H192.67C192.362 125.992 192.065 125.882 191.833 125.681C191.601 125.48 191.45 125.203 191.407 124.9C191.062 122.371 191.062 119.808 191.407 117.279C191.45 116.98 191.598 116.705 191.825 116.505C192.053 116.305 192.345 116.192 192.648 116.187C194.406 115.402 196.299 115.402 198.275 116.186C198.459 116.189 198.64 116.231 198.806 116.311C198.972 116.391 199.118 116.506 199.235 116.648C199.356 116.795 199.443 116.968 199.489 117.153C199.536 117.339 199.54 117.532 199.501 117.719C199.053 119.944 199.053 122.235 199.501 124.46C199.54 124.647 199.536 124.84 199.489 125.025C199.443 125.211 199.356 125.384 199.235 125.531C199.116 125.676 198.967 125.792 198.798 125.872C198.628 125.952 198.443 125.993 198.256 125.993Z" fill="#00ADB5"/>
<path d="M197.671 119.092H192.969C192.93 119.092 192.892 119.085 192.856 119.07C192.82 119.056 192.787 119.034 192.759 119.007C192.732 118.98 192.71 118.947 192.695 118.912C192.68 118.876 192.672 118.838 192.672 118.799C192.672 118.76 192.68 118.722 192.695 118.686C192.71 118.651 192.732 118.618 192.759 118.591C192.787 118.564 192.82 118.542 192.856 118.528C192.892 118.513 192.93 118.506 192.969 118.506H197.671C197.71 118.506 197.748 118.513 197.784 118.528C197.82 118.542 197.853 118.564 197.88 118.591C197.908 118.618 197.93 118.651 197.945 118.686C197.96 118.722 197.967 118.76 197.967 118.799C197.967 118.838 197.96 118.876 197.945 118.912C197.93 118.947 197.908 118.98 197.88 119.007C197.853 119.034 197.82 119.056 197.784 119.07C197.748 119.085 197.71 119.092 197.671 119.092Z" fill="white"/>
<path d="M197.671 121.434H192.969C192.93 121.434 192.892 121.427 192.856 121.412C192.82 121.398 192.787 121.376 192.759 121.349C192.732 121.322 192.71 121.289 192.695 121.254C192.68 121.218 192.672 121.18 192.672 121.141C192.672 121.102 192.68 121.064 192.695 121.028C192.71 120.993 192.732 120.96 192.759 120.933C192.787 120.906 192.82 120.884 192.856 120.87C192.892 120.855 192.93 120.848 192.969 120.848H197.671C197.71 120.848 197.748 120.855 197.784 120.87C197.82 120.884 197.853 120.906 197.88 120.933C197.908 120.96 197.93 120.993 197.945 121.028C197.96 121.064 197.967 121.102 197.967 121.141C197.967 121.18 197.96 121.218 197.945 121.254C197.93 121.289 197.908 121.322 197.88 121.349C197.853 121.376 197.82 121.398 197.784 121.412C197.748 121.427 197.71 121.434 197.671 121.434Z" fill="white"/>
<path d="M197.671 123.776H192.969C192.93 123.776 192.892 123.769 192.856 123.754C192.82 123.74 192.787 123.718 192.759 123.691C192.732 123.664 192.71 123.631 192.695 123.596C192.68 123.56 192.672 123.522 192.672 123.483C192.672 123.444 192.68 123.406 192.695 123.37C192.71 123.335 192.732 123.302 192.759 123.275C192.787 123.248 192.82 123.226 192.856 123.212C192.892 123.197 192.93 123.19 192.969 123.19H197.671C197.71 123.19 197.748 123.197 197.784 123.212C197.82 123.226 197.853 123.248 197.88 123.275C197.908 123.302 197.93 123.335 197.945 123.37C197.96 123.406 197.968 123.444 197.968 123.483C197.968 123.522 197.96 123.56 197.945 123.596C197.93 123.631 197.908 123.664 197.88 123.691C197.853 123.718 197.82 123.74 197.784 123.754C197.748 123.769 197.71 123.776 197.671 123.776Z" fill="white"/>
<path d="M171.214 73.4135H165.627C165.32 73.4132 165.023 73.3026 164.791 73.1018C164.559 72.9011 164.408 72.6237 164.365 72.3206C164.02 69.7921 164.02 67.2286 164.365 64.7C164.407 64.4006 164.556 64.1262 164.783 63.9259C165.011 63.7256 165.302 63.6127 165.606 63.6074C167.364 62.8226 169.256 62.8227 171.233 63.6073C171.417 63.6097 171.598 63.6523 171.764 63.7319C171.93 63.8116 172.076 63.9265 172.193 64.0684C172.314 64.2161 172.401 64.3889 172.447 64.5743C172.493 64.7597 172.497 64.9529 172.459 65.14C172.01 67.3647 172.01 69.656 172.459 71.8806C172.497 72.0678 172.493 72.261 172.447 72.4464C172.401 72.6317 172.314 72.8045 172.193 72.9522C172.074 73.0967 171.925 73.2131 171.756 73.2929C171.586 73.3726 171.401 73.4138 171.214 73.4135Z" fill="#00ADB5"/>
<path d="M170.629 66.5128H165.927C165.888 66.5131 165.85 66.5058 165.814 66.4912C165.778 66.4766 165.745 66.4551 165.717 66.4279C165.69 66.4007 165.668 66.3683 165.653 66.3326C165.638 66.2969 165.63 66.2587 165.63 66.22C165.63 66.1813 165.638 66.1431 165.653 66.1074C165.668 66.0717 165.69 66.0393 165.717 66.0121C165.745 65.9849 165.778 65.9634 165.814 65.9488C165.85 65.9342 165.888 65.9269 165.927 65.9273H170.629C170.668 65.9269 170.706 65.9342 170.742 65.9488C170.778 65.9634 170.811 65.9849 170.838 66.0121C170.866 66.0393 170.888 66.0717 170.903 66.1074C170.918 66.1431 170.925 66.1813 170.925 66.22C170.925 66.2587 170.918 66.2969 170.903 66.3326C170.888 66.3683 170.866 66.4007 170.838 66.4279C170.811 66.4551 170.778 66.4766 170.742 66.4912C170.706 66.5058 170.668 66.5131 170.629 66.5128Z" fill="white"/>
<path d="M170.629 68.8545H165.927C165.888 68.8549 165.85 68.8476 165.814 68.833C165.778 68.8184 165.745 68.7969 165.717 68.7697C165.69 68.7425 165.668 68.7101 165.653 68.6744C165.638 68.6387 165.63 68.6005 165.63 68.5618C165.63 68.5231 165.638 68.4849 165.653 68.4492C165.668 68.4135 165.69 68.3811 165.717 68.3539C165.745 68.3267 165.778 68.3052 165.814 68.2906C165.85 68.276 165.888 68.2687 165.927 68.2691H170.629C170.668 68.2687 170.706 68.276 170.742 68.2906C170.778 68.3052 170.811 68.3267 170.838 68.3539C170.866 68.3811 170.888 68.4135 170.903 68.4492C170.918 68.4849 170.925 68.5231 170.925 68.5618C170.925 68.6005 170.918 68.6387 170.903 68.6744C170.888 68.7101 170.866 68.7425 170.838 68.7697C170.811 68.7969 170.778 68.8184 170.742 68.833C170.706 68.8476 170.668 68.8549 170.629 68.8545Z" fill="white"/>
<path d="M170.629 71.1966H165.927C165.888 71.1969 165.849 71.1896 165.813 71.1751C165.777 71.1605 165.745 71.139 165.717 71.1118C165.69 71.0846 165.668 71.0522 165.653 71.0165C165.638 70.9808 165.63 70.9425 165.63 70.9038C165.63 70.8652 165.638 70.8269 165.653 70.7912C165.668 70.7555 165.69 70.7231 165.717 70.6959C165.745 70.6686 165.777 70.6471 165.813 70.6326C165.849 70.618 165.888 70.6107 165.927 70.6111H170.629C170.667 70.6107 170.706 70.618 170.742 70.6326C170.778 70.6471 170.811 70.6686 170.838 70.6959C170.866 70.7231 170.888 70.7555 170.903 70.7912C170.918 70.8269 170.925 70.8652 170.925 70.9038C170.925 70.9425 170.918 70.9808 170.903 71.0165C170.888 71.0522 170.866 71.0846 170.838 71.1118C170.811 71.139 170.778 71.1605 170.742 71.1751C170.706 71.1896 170.667 71.1969 170.629 71.1966Z" fill="white"/>
<path d="M73.1453 87.6942H67.5589C67.2517 87.694 66.9548 87.5833 66.7228 87.3826C66.4909 87.1818 66.3394 86.9044 66.2963 86.6014C65.9514 84.0728 65.9514 81.5094 66.2963 78.9808C66.3389 78.6814 66.4873 78.4069 66.7148 78.2067C66.9423 78.0064 67.234 77.8935 67.5375 77.8882C69.2952 77.1033 71.188 77.1034 73.1645 77.8881C73.3486 77.8905 73.5299 77.933 73.6957 78.0127C73.8615 78.0924 74.0078 78.2072 74.1244 78.3492C74.2459 78.4969 74.3328 78.6697 74.3789 78.8551C74.4249 79.0404 74.429 79.2337 74.3907 79.4208C73.9419 81.6454 73.9419 83.9368 74.3907 86.1614C74.429 86.3485 74.4249 86.5418 74.3789 86.7271C74.3328 86.9125 74.2459 87.0853 74.1244 87.233C74.0058 87.3775 73.8564 87.4938 73.6871 87.5736C73.5177 87.6534 73.3326 87.6946 73.1453 87.6942Z" fill="#00ADB5"/>
<path d="M72.5602 80.7935H67.8584C67.8195 80.7938 67.7811 80.7865 67.7451 80.7719C67.7091 80.7574 67.6764 80.7359 67.6489 80.7087C67.6213 80.6814 67.5994 80.6491 67.5845 80.6134C67.5696 80.5777 67.5619 80.5394 67.5619 80.5007C67.5619 80.4621 67.5696 80.4238 67.5845 80.3881C67.5994 80.3524 67.6213 80.3201 67.6489 80.2928C67.6764 80.2656 67.7091 80.2441 67.7451 80.2296C67.7811 80.215 67.8195 80.2077 67.8584 80.208H72.5602C72.599 80.2077 72.6375 80.215 72.6735 80.2296C72.7095 80.2441 72.7422 80.2656 72.7697 80.2928C72.7973 80.3201 72.8192 80.3524 72.8341 80.3881C72.849 80.4238 72.8567 80.4621 72.8567 80.5007C72.8567 80.5394 72.849 80.5777 72.8341 80.6134C72.8192 80.6491 72.7973 80.6814 72.7697 80.7087C72.7422 80.7359 72.7095 80.7574 72.6735 80.7719C72.6375 80.7865 72.599 80.7938 72.5602 80.7935Z" fill="white"/>
<path d="M72.5602 83.1353H67.8584C67.8195 83.1356 67.7811 83.1283 67.7451 83.1138C67.7091 83.0992 67.6764 83.0777 67.6489 83.0505C67.6213 83.0232 67.5994 82.9909 67.5845 82.9552C67.5696 82.9195 67.5619 82.8812 67.5619 82.8426C67.5619 82.8039 67.5696 82.7656 67.5845 82.7299C67.5994 82.6942 67.6213 82.6619 67.6489 82.6346C67.6764 82.6074 67.7091 82.5859 67.7451 82.5714C67.7811 82.5568 67.8195 82.5495 67.8584 82.5498H72.5602C72.599 82.5495 72.6375 82.5568 72.6735 82.5714C72.7095 82.5859 72.7422 82.6074 72.7697 82.6346C72.7973 82.6619 72.8192 82.6942 72.8341 82.7299C72.849 82.7656 72.8567 82.8039 72.8567 82.8426C72.8567 82.8812 72.849 82.9195 72.8341 82.9552C72.8192 82.9909 72.7973 83.0232 72.7697 83.0505C72.7422 83.0777 72.7095 83.0992 72.6735 83.1138C72.6375 83.1283 72.599 83.1356 72.5602 83.1353Z" fill="white"/>
<path d="M72.5602 85.4773H67.8583C67.8195 85.4777 67.781 85.4704 67.745 85.4559C67.709 85.4413 67.6763 85.4198 67.6487 85.3926C67.6211 85.3654 67.5992 85.333 67.5843 85.2973C67.5693 85.2616 67.5616 85.2233 67.5616 85.1846C67.5616 85.1459 67.5693 85.1076 67.5843 85.0719C67.5992 85.0362 67.6211 85.0038 67.6487 84.9766C67.6763 84.9494 67.709 84.9279 67.745 84.9134C67.781 84.8988 67.8195 84.8915 67.8583 84.8919H72.5602C72.599 84.8915 72.6375 84.8988 72.6735 84.9134C72.7094 84.9279 72.7422 84.9494 72.7698 84.9766C72.7973 85.0038 72.8192 85.0362 72.8342 85.0719C72.8491 85.1076 72.8568 85.1459 72.8568 85.1846C72.8568 85.2233 72.8491 85.2616 72.8342 85.2973C72.8192 85.333 72.7973 85.3654 72.7698 85.3926C72.7422 85.4198 72.7094 85.4413 72.6735 85.4559C72.6375 85.4704 72.599 85.4777 72.5602 85.4773Z" fill="white"/>
<path d="M199.893 118.879C200.163 118.72 200.395 118.503 200.572 118.245C200.75 117.987 200.868 117.694 200.919 117.385C200.97 117.076 200.953 116.76 200.868 116.459C200.784 116.158 200.634 115.879 200.429 115.642L204.265 109.07L200.306 109.292L197.27 115.499C196.892 115.868 196.664 116.362 196.628 116.887C196.592 117.413 196.751 117.933 197.074 118.349C197.398 118.766 197.863 119.05 198.382 119.148C198.902 119.245 199.439 119.149 199.893 118.879V118.879Z" fill="#FFB6B6"/>
<path d="M201.441 114.047L197.896 111.296L204.337 98.8606L201.924 83.0245C201.804 82.2417 201.86 81.4424 202.085 80.6832C202.311 79.9241 202.702 79.2237 203.23 78.6319C203.758 78.0401 204.41 77.5713 205.14 77.2589C205.87 76.9464 206.661 76.7979 207.455 76.824C208.89 76.8726 210.247 77.4862 211.228 78.5302C212.209 79.5742 212.734 80.9632 212.688 82.3925L212.092 100.424L201.441 114.047Z" fill="#CCCCCC"/>
<path d="M30.0999 110.649C30.3232 110.425 30.4946 110.156 30.6019 109.859C30.7093 109.563 30.7501 109.246 30.7213 108.932C30.6926 108.618 30.5951 108.314 30.4358 108.041C30.2764 107.769 30.0589 107.535 29.7988 107.355L33.2465 90.2959L29.4391 91.5137L26.6794 108.014C26.4053 108.469 26.3085 109.009 26.4072 109.531C26.5058 110.053 26.7932 110.52 27.2148 110.845C27.6364 111.17 28.163 111.329 28.6947 111.293C29.2265 111.257 29.7264 111.028 30.0999 110.649H30.0999Z" fill="#9E616A"/>
<path d="M35.1907 74.5567L32.8285 72.7803C32.8285 72.7803 30.7446 72.6333 30.3755 76.377C30.0064 80.1207 29.2486 87.4165 29.2486 87.4165L25.6338 104.095L30.6376 105.189L34.5093 87.1901L36.8319 81.8452L35.1907 74.5567Z" fill="#CCCCCC"/>
<path d="M31.2963 101.79L44.6078 101.569L45.7172 92.5078H31.2963V101.79Z" fill="#9E616A"/>
<path d="M43.2765 157.551H46.3496L47.8115 145.743L43.2759 145.744L43.2765 157.551Z" fill="#9E616A"/>
<path d="M24.0245 157.835L27.0976 157.813L28.4764 145.996L24.4797 146.909L24.0245 157.835Z" fill="#9E616A"/>
<path d="M33.6358 84.7042L32.9396 86.5074L33.0787 88.311L46.7063 93.013L46.0303 85.1202L44.4983 83.3167L33.6358 84.7042Z" fill="#FFB6B6"/>
<path d="M39.4822 68.4746C42.1703 68.4746 44.3495 66.3038 44.3495 63.6259C44.3495 60.9481 42.1703 58.7773 39.4822 58.7773C36.7941 58.7773 34.615 60.9481 34.615 63.6259C34.615 66.3038 36.7941 68.4746 39.4822 68.4746Z" fill="#9E616A"/>
<path d="M42.5144 156.041L47.3723 155.752V157.826L51.9908 161.003C52.2189 161.16 52.3907 161.386 52.4811 161.647C52.5715 161.908 52.5758 162.191 52.4933 162.454C52.4108 162.718 52.2458 162.949 52.0225 163.112C51.7992 163.276 51.5292 163.364 51.252 163.364H45.4686L44.4717 161.313L44.0825 163.364H41.9019L42.5144 156.041Z" fill="#335052"/>
<path d="M22.9733 156.332L27.829 156.009L27.8436 158.083L32.4843 161.228C32.7135 161.383 32.8869 161.607 32.9791 161.868C33.0714 162.128 33.0776 162.411 32.997 162.675C32.9163 162.94 32.753 163.171 32.5309 163.336C32.3087 163.502 32.0394 163.592 31.7622 163.594L25.9788 163.634L24.9676 161.59L24.5928 163.644L22.4122 163.659L22.9733 156.332Z" fill="#335052"/>
<path d="M23.0682 148.782L25.3059 130.964L27.9682 112.178C26.0186 108.571 30.4087 97.3701 30.4087 97.3701L31.0284 97.3997L45.0545 100.036L45.0515 100.022C47.9202 107.817 48.8707 111.668 48.7135 119.968L48.1483 149.807H48.3256C48.6198 149.807 48.902 149.923 49.11 150.13C49.318 150.338 49.4349 150.619 49.4349 150.912C49.4349 151.205 49.318 151.486 49.11 151.693C48.902 151.9 48.6198 152.017 48.3256 152.017H42.7791C42.6333 152.017 42.4888 151.989 42.354 151.933C42.2192 151.878 42.0967 151.797 41.9935 151.694C41.8903 151.591 41.8084 151.469 41.7525 151.335C41.6967 151.201 41.6679 151.057 41.6679 150.912C41.6679 150.767 41.6967 150.623 41.7525 150.489C41.8084 150.354 41.8903 150.232 41.9935 150.13C42.0967 150.027 42.2192 149.946 42.354 149.89C42.4888 149.835 42.6333 149.807 42.7791 149.807H42.9221L37.8311 114.278L33.5147 129.196L28.6338 148.645C30.4087 148.203 30.1331 149.227 30.1331 149.807C30.1331 150.1 30.0162 150.381 29.8082 150.588C29.6002 150.795 29.318 150.912 29.0238 150.912H23.4773C23.2194 150.912 22.9694 150.823 22.7705 150.659C22.5716 150.495 22.4362 150.268 22.3878 150.015C22.3393 149.763 22.3808 149.502 22.505 149.276C22.6292 149.051 22.8284 148.876 23.0683 148.782H23.0682Z" fill="#335052"/>
<path d="M29.3166 97.9503L29.7603 93.5301C29.8064 93.3497 29.9086 93.1886 30.0523 93.0697C30.196 92.9508 30.3737 92.8802 30.5601 92.8682C30.745 90.7625 31.5229 81.6787 31.5693 81.2825L31.5712 81.2658L31.9249 73.7386C31.9377 73.4653 32.0512 73.2062 32.2436 73.0109C32.4361 72.8156 32.694 72.6978 32.9682 72.6799L34.8364 72.5583C34.862 72.5574 34.8863 72.5467 34.9041 72.5283C34.922 72.5099 34.9319 72.4854 34.9319 72.4599C34.9319 72.2543 34.9726 72.0508 35.0515 71.8609C35.1305 71.671 35.2462 71.4985 35.3921 71.3532C35.538 71.2079 35.7112 71.0926 35.9018 71.0139C36.0924 70.9353 36.2967 70.8948 36.503 70.8948H42.0342C42.3925 70.8949 42.7384 71.0253 43.007 71.2615C43.2756 71.4977 43.4484 71.8234 43.4931 72.1775C43.4955 72.2019 43.5071 72.2244 43.5256 72.2407C43.544 72.2569 43.5679 72.2656 43.5925 72.265H43.5931C44.2216 72.2521 44.8339 72.4641 45.319 72.8625C45.804 73.2609 46.1296 73.8192 46.2367 74.4363C46.9929 78.8192 48.5083 88.7666 47.7591 94.2968C47.4982 96.222 48.0605 94.6972 48.1592 96.308C48.169 96.4636 48.1478 96.6197 48.097 96.7672C48.0461 96.9147 47.9666 97.0508 47.8628 97.1676C48.0752 97.2445 48.2485 97.4017 48.3452 97.6051C48.4419 97.8086 48.4542 98.0418 48.3793 98.2541L48.4766 98.2302C48.4481 98.3427 48.3976 98.4486 48.3281 98.5418C48.2585 98.6349 48.1712 98.7135 48.0711 98.773C47.9711 98.8326 47.8602 98.8719 47.7449 98.8887C47.6296 98.9056 47.5121 98.8997 47.3991 98.8713L32.9281 100.825C32.4528 100.705 29.1968 98.4237 29.3166 97.9503Z" fill="#CCCCCC"/>
<path d="M67.9851 79.9786C67.8945 80.2807 67.7384 80.5594 67.528 80.795C67.3175 81.0305 67.0578 81.2173 66.767 81.342C66.4763 81.4668 66.1616 81.5265 65.8452 81.517C65.5288 81.5075 65.2183 81.429 64.9356 81.287L59.3412 86.373L58.5984 82.4589L64.0283 78.2418C64.2992 77.7845 64.7291 77.4422 65.2364 77.2795C65.7438 77.1169 66.2934 77.1453 66.7811 77.3594C67.2689 77.5735 67.6608 77.9584 67.8827 78.4411C68.1046 78.9238 68.1411 79.4709 67.9852 79.9786H67.9851Z" fill="#9E616A"/>
<path d="M48.5134 76.0909C48.5134 76.0909 46.5627 71.6994 44.0989 72.5723C41.6351 73.4452 42.9072 77.7062 42.9072 77.7062L52.1637 91.6012C52.1637 91.6012 65.5151 83.0692 63.8916 83.009C62.268 82.9487 61.7824 80.0072 61.7824 80.0072L54.726 83.5195L54.4872 82.2692L54.1045 82.6504L53.117 81.8761L48.5134 76.0909Z" fill="#CCCCCC"/>
<path d="M208.089 71.2667C211.842 71.2667 214.884 68.236 214.884 64.4974C214.884 60.7588 211.842 57.728 208.089 57.728C204.336 57.728 201.293 60.7588 201.293 64.4974C201.293 68.236 204.336 71.2667 208.089 71.2667Z" fill="#FFB6B6"/>
<path d="M229.897 74.4585C229.113 75.5655 227.969 76.3682 226.658 76.7304C226.133 76.8859 225.592 76.9776 225.045 77.0033C224.978 76.3875 224.816 75.7857 224.566 75.2186C224.591 75.8222 224.507 76.4254 224.317 76.9991C223.496 76.9528 222.694 76.7386 221.96 76.3699C221.238 76.0085 220.612 75.4847 220.129 74.8399C219.647 74.1952 219.322 73.4473 219.18 72.6557C218.892 70.8041 219.735 68.986 220.039 67.1372C220.345 65.2885 219.771 62.9469 217.954 62.461C216.571 62.0907 216.726 62.2508 215.576 63.1014C216.772 64.8636 212.353 71.3213 210.545 70.7582C209.522 70.4398 208.868 69.5053 208.657 69.5053C207.236 71.9443 209.912 76.0539 207.215 76.9073L207.437 76.6859C209.065 74.691 205.662 70.4686 207.29 68.4737C207.744 67.9154 208.228 67.2542 208.094 66.5483C207.966 65.8773 206.897 65.5223 206.584 66.0736C207.148 64.7887 206.316 63.0736 204.94 62.7436C203.717 62.4499 203.739 62.8118 202.512 62.9691C202.432 62.4409 202.282 61.9255 202.066 61.4364C202.089 61.9634 202.027 62.4907 201.883 62.9984C201.45 62.9899 201.031 62.8392 200.693 62.5696C199.692 61.7663 199.895 60.0791 200.788 59.1589C201.682 58.2387 203.011 57.9073 204.279 57.6929C204.647 55.1369 211.726 54.8702 212.665 57.4243C213.065 55.517 215.461 54.5272 217.324 55.1189C219.187 55.7106 220.48 57.4438 221.16 59.2703C221.841 61.0953 222.031 63.0597 222.45 64.9613C222.869 66.863 223.578 68.7994 225.037 70.0955C226.496 71.3902 228.873 71.819 230.41 70.6162C230.634 71.2517 230.704 71.9308 230.615 72.5984C230.525 73.2659 230.28 73.9032 229.897 74.4585Z" fill="#335052"/>
<path d="M293.65 89.9063L292.699 94.6611C292.627 95.0246 292.552 95.3946 292.471 95.7614C291.675 95.5972 290.851 95.6431 290.079 95.8945C290.692 96.7662 291.24 97.6805 291.721 98.6305C291.122 100.471 290.242 102.171 288.769 103.402C287.786 104.205 286.611 104.742 285.358 104.962C284.106 105.181 282.818 105.075 281.618 104.654L281.66 104.466C280.077 101.406 280.937 97.5465 282.905 94.7195C283.909 93.3249 285.098 92.0725 286.44 90.9968C287.769 89.8933 289.206 88.9034 290.63 87.9265C290.95 87.7074 291.328 87.5883 291.716 87.5843C292.104 87.5804 292.484 87.6918 292.808 87.9043C293.133 88.1168 293.386 88.4208 293.536 88.7774C293.686 89.134 293.725 89.527 293.65 89.9063Z" fill="#E4E4E4"/>
<path d="M281.957 116.095C281.556 113.189 281.144 110.246 281.425 107.309C281.675 104.701 282.473 102.154 284.1 100.065C284.963 98.9582 286.013 98.01 287.204 97.2629C287.514 97.0682 287.8 97.558 287.491 97.7521C285.431 99.0487 283.838 100.963 282.942 103.22C281.951 105.729 281.792 108.465 281.964 111.131C282.067 112.743 282.286 114.344 282.507 115.944C282.524 116.016 282.514 116.093 282.477 116.158C282.44 116.223 282.379 116.271 282.308 116.293C282.235 116.312 282.158 116.302 282.092 116.265C282.027 116.228 281.978 116.167 281.958 116.095L281.957 116.095Z" fill="#F2F2F2"/>
<path d="M304.612 163.9L0.387912 164C0.28522 164 0.186838 163.959 0.114328 163.886C0.041819 163.814 0.00109863 163.716 0.00109863 163.614C0.00109863 163.511 0.041819 163.413 0.114328 163.341C0.186838 163.268 0.28522 163.227 0.387912 163.227L304.612 163.127C304.715 163.128 304.813 163.169 304.886 163.241C304.958 163.313 304.999 163.412 304.999 163.514C304.999 163.616 304.958 163.714 304.886 163.787C304.813 163.859 304.715 163.9 304.612 163.9Z" fill="#CACACA"/>
<path d="M33.7538 60.6573C33.0073 61.0142 32.1717 60.4773 31.5272 59.9453L31.7577 60.1437C30.6187 61.2476 30.0862 62.8359 29.826 64.3994C29.5655 65.9612 29.5365 67.5585 29.2085 69.1093C28.8803 70.6584 28.1995 72.2148 26.9278 73.1637C25.2241 74.4345 22.8744 74.3529 20.7837 73.9633C20.7559 73.9577 20.7299 73.9534 20.702 73.9478C21.2646 72.3298 21.4933 70.6152 21.3744 68.907C20.8139 70.6188 19.8599 72.1766 18.5883 73.4562C17.2021 73.0762 15.8491 72.5851 14.5424 71.9876C13.697 71.5999 12.7867 71.0699 12.552 70.1724C12.3168 69.2817 12.8631 68.3474 13.5935 67.785C14.3239 67.2225 15.2204 66.9291 16.0525 66.5284C16.8832 66.1296 17.7053 65.561 18.0379 64.7026C18.8051 62.728 16.6196 60.4621 17.4713 58.5211C17.8914 57.5665 18.9201 57.0473 19.8871 56.6471C21.3633 56.0376 22.8791 55.5283 24.4242 55.1225C25.7806 54.7661 27.1969 54.4891 28.5787 54.7228C29.9604 54.9564 31.3142 55.7936 31.8115 57.1009C32.6413 57.3802 33.5222 57.6951 34.0548 58.3909C34.587 59.0851 34.5441 60.2801 33.7538 60.6573Z" fill="#335052"/>
<path d="M40.3958 58.3692C38.2603 56.6898 36.5337 56.9765 35.2017 58.0199C34.9777 57.7717 34.0248 58.4544 33.7022 58.3563L32.5352 60.5387C31.9346 61.5944 31.6883 62.672 31.7853 63.2785C30.6807 66.3643 33.3002 68.4482 36.398 69.5485C37.634 69.9907 38.9827 70.0101 40.2311 69.6038L40.2692 69.078L40.5038 69.509C40.5038 69.509 43.3357 75.3178 44.0049 75.5786C43.5989 74.5293 42.5279 69.5422 42.229 68.5027C41.8191 67.0883 42.0991 64.8412 42.34 63.4635C42.4902 62.6141 42.498 61.7458 42.3633 60.8939L42.3573 60.8567L43.0199 62.1891L44.5065 61.2578C43.9384 59.6093 43.927 57.6371 40.3958 58.3692Z" fill="#335052"/>
</svg>
