<svg width="290" height="193" viewBox="0 0 290 193" fill="none" xmlns="http://www.w3.org/2000/svg">
<g clip-path="url(#clip0_156_750)">
<path d="M104.023 111.073C113.961 93.5657 132.919 80.1228 152.987 81.4178C138.184 97.5383 129.552 118.383 128.619 140.263C128.289 148.702 128.8 158.124 123.205 164.443C119.723 168.375 114.401 170.28 109.169 170.679C103.936 171.079 98.7042 170.132 93.5414 169.189L92.289 169.574C91.8122 149.441 94.0847 128.581 104.023 111.073Z" fill="#F0F0F0"/>
<path d="M153.017 81.8392C138.177 88.9935 125.523 100.942 117.755 115.514C116.076 118.664 114.646 122.006 114.022 125.54C113.398 129.076 113.834 132.441 115.04 135.799C116.142 138.869 117.625 141.881 117.963 145.166C118.319 148.628 117.047 151.865 114.757 154.434C111.956 157.578 108.193 159.526 104.448 161.302C100.289 163.275 95.9382 165.259 92.9927 168.941C92.6358 169.387 91.9654 168.806 92.3218 168.361C97.4464 161.954 106.219 160.75 112.302 155.59C115.14 153.182 117.271 149.902 117.137 146.06C117.019 142.7 115.493 139.593 114.35 136.494C113.15 133.241 112.551 129.969 112.981 126.501C113.422 122.952 114.724 119.547 116.316 116.367C119.905 109.197 124.817 102.613 130.445 96.9224C136.912 90.3809 144.449 84.9955 152.73 80.9993C153.243 80.7521 153.526 81.5937 153.017 81.8392Z" fill="white"/>
<path d="M120.031 110.644C117.755 108.978 116.146 106.557 115.489 103.812C114.832 101.067 115.171 98.1782 116.445 95.6606C116.705 95.1521 117.506 95.5321 117.246 96.0413C116.055 98.3834 115.74 101.075 116.357 103.629C116.974 106.184 118.482 108.433 120.61 109.972C121.072 110.307 120.49 110.977 120.031 110.644Z" fill="white"/>
<path d="M114.276 134.316C119.977 133.482 125.154 130.527 128.776 126.04C129.134 125.595 129.805 126.175 129.447 126.62C125.669 131.282 120.275 134.346 114.341 135.201C113.775 135.282 113.714 134.397 114.276 134.316V134.316Z" fill="white"/>
<path d="M137.35 91.4731C138.096 92.3014 139.036 92.9311 140.085 93.3057C141.134 93.6803 142.26 93.7881 143.361 93.6193C143.926 93.5311 143.987 94.4168 143.426 94.5045C142.209 94.6853 140.966 94.5647 139.806 94.1534C138.645 93.7422 137.603 93.0526 136.771 92.145C136.685 92.0661 136.633 91.9574 136.624 91.8412C136.616 91.7249 136.652 91.6098 136.725 91.5191C136.802 91.4305 136.911 91.376 137.028 91.3674C137.145 91.3588 137.261 91.3968 137.35 91.4731Z" fill="white"/>
<path d="M192.917 136.648C192.566 136.713 192.215 136.778 191.861 136.85C187.149 137.75 182.518 139.032 178.013 140.683C177.662 140.806 177.309 140.935 176.963 141.067C166.152 145.161 156.194 151.229 147.596 158.964C144.177 162.045 140.997 165.382 138.084 168.946C134.061 173.868 130.09 179.526 124.833 182.735C124.288 183.076 123.723 183.383 123.14 183.654L92.8552 171.074C92.8007 171.011 92.743 170.955 92.6882 170.891L91.4561 170.444C91.5935 170.25 91.7402 170.052 91.8776 169.857C91.9569 169.744 92.0429 169.634 92.1221 169.521C92.1771 169.446 92.2324 169.372 92.2778 169.302C92.296 169.277 92.3145 169.252 92.3299 169.234C92.3752 169.164 92.4248 169.103 92.4673 169.04C93.2843 167.927 94.1105 166.819 94.946 165.714C94.9488 165.707 94.9488 165.707 94.9585 165.703C101.346 157.303 108.489 149.362 116.609 142.76C116.854 142.561 117.1 142.355 117.359 142.163C121.035 139.207 124.947 136.557 129.055 134.24C131.308 132.978 133.624 131.831 135.993 130.804C142.119 128.161 148.623 126.5 155.265 125.882C168.505 124.651 181.992 127.674 192.147 136.004C192.407 136.217 192.66 136.427 192.917 136.648Z" fill="#F0F0F0"/>
<path d="M192.689 137.004C176.539 133.769 159.252 135.68 144.289 142.631C141.054 144.134 137.903 145.94 135.281 148.386C132.657 150.833 130.981 153.782 129.925 157.19C128.96 160.306 128.333 163.605 126.628 166.431C124.831 169.411 121.869 171.228 118.496 171.899C114.369 172.72 110.194 172.007 106.135 171.167C101.629 170.235 96.9624 169.195 92.3969 170.36C91.8437 170.501 91.6575 169.633 92.2099 169.492C100.153 167.467 107.881 171.794 115.841 171.341C119.555 171.13 123.228 169.797 125.43 166.648C127.357 163.894 128.006 160.493 128.956 157.33C129.954 154.008 131.443 151.035 133.872 148.525C136.357 145.958 139.444 144.024 142.627 142.445C149.804 138.884 157.684 136.589 165.598 135.438C174.695 134.114 183.951 134.359 192.965 136.161C193.523 136.272 193.244 137.115 192.689 137.004V137.004Z" fill="white"/>
<path d="M149.034 140.115C148.219 137.413 148.389 134.509 149.515 131.921C150.641 129.334 152.648 127.232 155.179 125.989C155.692 125.74 156.103 126.526 155.59 126.776C153.231 127.929 151.361 129.887 150.318 132.299C149.274 134.71 149.126 137.416 149.9 139.927C150.068 140.473 149.2 140.657 149.034 140.115Z" fill="white"/>
<path d="M130.207 155.546C135.26 158.317 141.171 159.079 146.76 157.68C147.314 157.541 147.5 158.409 146.947 158.548C141.128 159.993 134.979 159.187 129.727 156.292C129.226 156.016 129.709 155.271 130.207 155.546Z" fill="white"/>
<path d="M174.388 135.25C174.486 136.362 174.858 137.431 175.47 138.363C176.083 139.294 176.917 140.059 177.897 140.588C178.401 140.858 177.917 141.602 177.417 141.334C176.336 140.745 175.416 139.899 174.737 138.871C174.058 137.843 173.641 136.664 173.522 135.438C173.501 135.323 173.524 135.205 173.587 135.107C173.65 135.009 173.748 134.938 173.861 134.91C173.976 134.886 174.096 134.908 174.194 134.972C174.293 135.036 174.363 135.136 174.388 135.25Z" fill="white"/>
<path d="M135.226 157.402C130.985 136.865 125.683 130.018 125.683 130.018L123.658 128.445L121.222 126.55L121.234 126.307L120.656 126.11L120.521 126.005L120.298 125.834L120.263 125.872L120.187 125.95L109.165 122.199L95.1827 117.442L88.7077 109.014C87.6532 107.642 86.2956 106.532 84.7412 105.773C83.1869 105.014 81.4781 104.625 79.7487 104.638L59.0699 104.791C56.2738 104.812 53.5867 105.879 51.5367 107.784L37.9448 120.409L16.766 130.538L16.7303 130.502L16.5079 130.662L13.2356 132.228L13.3706 132.932L11.3452 134.396C11.3452 134.396 6.0436 140.767 1.80228 159.876C0.723332 164.738 0.192236 175.169 0.000538709 188.021C-0.00909022 188.671 0.110449 189.317 0.352201 189.921C0.593954 190.524 0.953099 191.073 1.40875 191.537C1.86441 192 2.40748 192.368 3.0064 192.619C3.60531 192.87 4.24812 193 4.89744 193H118.017V193H132.136C132.785 193 133.428 192.87 134.026 192.619C134.625 192.368 135.167 192.001 135.623 191.538C136.079 191.076 136.438 190.527 136.68 189.924C136.922 189.321 137.042 188.676 137.033 188.026C136.846 174.041 136.315 162.675 135.226 157.402Z" fill="#00ADB5"/>
<path d="M149.74 17.9097C145.339 17.9097 141.118 19.6605 138.006 22.7769C134.894 25.8933 133.146 30.1201 133.146 34.5274C133.146 38.9347 134.894 43.1615 138.006 46.278C141.118 49.3944 145.339 51.1452 149.74 51.1452H273.406C277.807 51.1452 282.028 49.3944 285.14 46.278C288.252 43.1615 290 38.9347 290 34.5274C290 30.1201 288.252 25.8933 285.14 22.7769C282.028 19.6605 277.807 17.9097 273.406 17.9097H149.74Z" fill="#E5E5E5"/>
<path d="M149.74 21.2727C146.23 21.2727 142.863 22.6692 140.381 25.1549C137.899 27.6406 136.504 31.012 136.504 34.5274C136.504 38.0427 137.899 41.4141 140.381 43.8998C142.863 46.3855 146.23 47.782 149.74 47.782H273.406C276.916 47.782 280.283 46.3855 282.765 43.8998C285.247 41.4141 286.642 38.0427 286.642 34.5274C286.642 31.012 285.247 27.6406 282.765 25.1549C280.283 22.6692 276.916 21.2727 273.406 21.2727H149.74Z" fill="white"/>
<path d="M72.6567 96.8583C87.6189 96.8583 99.7481 84.7118 99.7481 69.7283C99.7481 54.7449 87.6189 42.5984 72.6567 42.5984C57.6946 42.5984 45.5654 54.7449 45.5654 69.7283C45.5654 84.7118 57.6946 96.8583 72.6567 96.8583Z" fill="#9E616A"/>
<path d="M65.7263 95.5299C65.6105 95.2747 65.4951 95.0187 65.38 94.7617C65.4244 94.7631 65.4683 94.7695 65.5126 94.7707L65.7263 95.5299Z" fill="#2F2E41"/>
<path d="M44.812 43.8321C46.1822 42.7375 47.7837 41.7304 49.5356 41.787C51.2874 41.8435 53.0639 43.428 52.7009 45.1452C55.9187 39.4397 61.0404 35.0516 67.1671 32.751C73.2938 30.4503 80.0339 30.3843 86.2043 32.5644C90.5584 34.1027 94.8282 37.1803 95.8284 41.6942C96.0851 42.8529 96.1402 44.1234 96.8627 45.0644C97.7736 46.2507 99.5164 46.519 100.951 46.1017C100.966 46.0975 100.98 46.0933 100.994 46.089C101.237 46.0061 101.499 45.998 101.746 46.0656C101.993 46.1333 102.214 46.2736 102.381 46.4685C102.547 46.6634 102.652 46.9039 102.68 47.1588C102.709 47.4138 102.66 47.6715 102.541 47.8985L101.309 50.1994C102.862 50.5461 104.476 50.5117 106.013 50.0993C106.268 50.0322 106.538 50.0459 106.785 50.1385C107.032 50.231 107.245 50.3979 107.394 50.6162C107.542 50.8345 107.62 51.0936 107.616 51.3579C107.612 51.6222 107.526 51.8787 107.371 52.0923C103.308 57.6776 96.5217 61.2842 89.596 61.2418C84.6737 61.2118 79.7006 59.5129 74.9101 60.6465C73.0568 61.085 71.325 61.9335 69.8419 63.1296C68.3588 64.3258 67.1619 65.8393 66.3391 67.5592C65.5162 69.279 65.0883 71.1615 65.0867 73.0685C65.0852 74.9755 65.51 76.8587 66.3299 78.5799C64.8583 76.9679 62.0133 77.3495 60.5079 78.9301C59.0026 80.5106 58.6128 82.8697 58.7645 85.0486C58.9965 88.3812 60.3003 91.5214 61.6749 94.5777C50.1505 94.2144 39.2504 86.1187 35.5814 75.1691C31.897 64.1737 35.7584 51.0648 44.812 43.8321Z" fill="#2F2E41"/>
<path opacity="0.2" d="M26.6649 151.201L34.2634 192.602L38.8227 193L26.6649 151.201Z" fill="black"/>
<path opacity="0.2" d="M110.364 148.079L102.765 192.572L98.2061 193L110.364 148.079Z" fill="black"/>
<path d="M51.293 29.8988C49.8361 30.508 48.3159 29.8404 47.6783 28.3114C47.031 26.759 47.6356 25.1831 49.1158 24.5641C50.5962 23.9451 52.0894 24.6144 52.7471 26.1918C53.395 27.7456 52.797 29.2699 51.293 29.8988ZM48.5022 21.5085L47.3438 21.9929C47.0544 22.1125 46.7307 22.1189 46.4368 22.011C46.1429 21.903 45.9002 21.6885 45.7566 21.41L45.6993 21.2977C44.4529 19.0466 44.3102 16.3107 45.2774 13.1703C46.1734 10.3532 46.5455 8.37194 45.7971 6.57702C44.9318 4.50176 43.084 3.85169 40.7277 4.7934C39.8138 5.17555 39.523 5.16946 38.8038 5.88393C38.6473 6.04123 38.4608 6.16538 38.2555 6.24896C38.0501 6.33254 37.83 6.37384 37.6083 6.37041C37.394 6.36789 37.1824 6.32217 36.9862 6.23599C36.7899 6.14981 36.613 6.02493 36.4659 5.8688C36.1827 5.56792 36.024 5.17059 36.0219 4.75707C36.0198 4.34355 36.1745 3.94465 36.4547 3.64091C37.6636 2.37368 39.1216 1.37114 40.7368 0.696551C45.7995 -1.4205 48.3482 1.70502 49.5145 4.50207C50.6552 7.2379 50.0135 9.77629 48.9825 13.0638C48.1184 15.7955 48.1687 17.8196 49.1502 19.8322C49.2211 19.9844 49.2605 20.1493 49.2661 20.3171C49.2718 20.4849 49.2435 20.6521 49.1829 20.8087C49.1224 20.9652 49.0309 21.1079 48.9139 21.2282C48.7969 21.3485 48.6569 21.4438 48.5022 21.5085L48.5022 21.5085Z" fill="#296D71"/>
<path d="M177.056 42.4531H152.452C152.373 42.4536 152.296 42.4387 152.224 42.4091C152.151 42.3795 152.085 42.3359 152.03 42.2807C151.974 42.2256 151.93 42.1599 151.9 42.0877C151.87 42.0154 151.855 41.9379 151.855 41.8596C151.855 41.7813 151.87 41.7038 151.9 41.6316C151.93 41.5593 151.974 41.4937 152.03 41.4385C152.085 41.3834 152.151 41.3397 152.224 41.3101C152.296 41.2806 152.373 41.2656 152.452 41.2661H177.056C177.213 41.2672 177.363 41.3302 177.473 41.4414C177.583 41.5526 177.645 41.7029 177.645 41.8596C177.645 42.0163 177.583 42.1667 177.473 42.2779C177.363 42.389 177.213 42.452 177.056 42.4531Z" fill="#296D71"/>
<path d="M208.269 42.6509H183.664C183.586 42.6514 183.509 42.6364 183.436 42.6069C183.364 42.5773 183.298 42.5336 183.243 42.4785C183.187 42.4233 183.143 42.3577 183.113 42.2854C183.083 42.2132 183.068 42.1357 183.068 42.0574C183.068 41.9791 183.083 41.9016 183.113 41.8293C183.143 41.757 183.187 41.6914 183.243 41.6363C183.298 41.5811 183.364 41.5375 183.436 41.5079C183.509 41.4783 183.586 41.4633 183.664 41.4639H208.269C208.347 41.4633 208.425 41.4783 208.497 41.5079C208.569 41.5375 208.635 41.5811 208.691 41.6363C208.746 41.6914 208.79 41.757 208.82 41.8293C208.85 41.9016 208.866 41.9791 208.866 42.0574C208.866 42.1357 208.85 42.2132 208.82 42.2854C208.79 42.3577 208.746 42.4233 208.691 42.4785C208.635 42.5336 208.569 42.5773 208.497 42.6069C208.425 42.6364 208.347 42.6514 208.269 42.6509Z" fill="#296D71"/>
<path d="M239.482 42.8486H214.877C214.72 42.8475 214.571 42.7845 214.46 42.6734C214.35 42.5622 214.288 42.4118 214.288 42.2551C214.288 42.0984 214.35 41.9481 214.46 41.8369C214.571 41.7257 214.72 41.6627 214.877 41.6616H239.482C239.56 41.6611 239.637 41.6761 239.71 41.7056C239.782 41.7352 239.848 41.7789 239.904 41.834C239.959 41.8892 240.003 41.9548 240.033 42.0271C240.063 42.0993 240.079 42.1768 240.079 42.2551C240.079 42.3334 240.063 42.4109 240.033 42.4832C240.003 42.5555 239.959 42.6211 239.904 42.6762C239.848 42.7314 239.782 42.775 239.71 42.8046C239.637 42.8342 239.56 42.8491 239.482 42.8486H239.482Z" fill="#296D71"/>
<path d="M270.695 43.0464H246.09C245.933 43.0453 245.784 42.9823 245.673 42.8711C245.563 42.7599 245.501 42.6096 245.501 42.4529C245.501 42.2962 245.563 42.1458 245.673 42.0346C245.784 41.9234 245.933 41.8604 246.09 41.8594H270.695C270.851 41.8604 271.001 41.9234 271.111 42.0346C271.221 42.1458 271.283 42.2962 271.283 42.4529C271.283 42.6096 271.221 42.7599 271.111 42.8711C271.001 42.9823 270.851 43.0453 270.695 43.0464Z" fill="#296D71"/>
<path d="M164.7 36.9911C167.225 36.9911 169.273 34.9408 169.273 32.4116C169.273 29.8824 167.225 27.832 164.7 27.832C162.174 27.832 160.127 29.8824 160.127 32.4116C160.127 34.9408 162.174 36.9911 164.7 36.9911Z" fill="#296D71"/>
<path d="M196.101 36.9911C198.627 36.9911 200.674 34.9408 200.674 32.4116C200.674 29.8824 198.627 27.832 196.101 27.832C193.575 27.832 191.528 29.8824 191.528 32.4116C191.528 34.9408 193.575 36.9911 196.101 36.9911Z" fill="#296D71"/>
<path d="M227.502 36.9911C230.028 36.9911 232.075 34.9408 232.075 32.4116C232.075 29.8824 230.028 27.832 227.502 27.832C224.977 27.832 222.929 29.8824 222.929 32.4116C222.929 34.9408 224.977 36.9911 227.502 36.9911Z" fill="#296D71"/>
<path d="M258.904 36.9911C261.429 36.9911 263.477 34.9408 263.477 32.4116C263.477 29.8824 261.429 27.832 258.904 27.832C256.378 27.832 254.331 29.8824 254.331 32.4116C254.331 34.9408 256.378 36.9911 258.904 36.9911Z" fill="#296D71"/>
</g>
<defs>
<clipPath id="clip0_156_750">
<rect width="290" height="193" fill="white"/>
</clipPath>
</defs>
</svg>
